<svg fill="none" height="24" viewBox="0 0 76 24" width="76" xmlns="http://www.w3.org/2000/svg"><path d="m13.0009 21v2h-2v-2h-7.99998c-.26522 0-.51958-.1053-.70711-.2929-.18754-.1875-.29289-.4419-.29289-.7071v-16c0-.26521.10535-.51957.29289-.7071.18753-.18754.44189-.2929.70711-.2929h5.99999c.56759-.00067 1.12879.11976 1.64609.35325.5174.23349.9789.57467 1.3539 1.00075.375-.42608.8366-.76726 1.3539-1.00075s1.0785-.35392 1.6461-.35325h6c.2652 0 .5196.10536.7071.2929.1876.18753.2929.44189.2929.7071v16c0 .2652-.1053.5196-.2929.7071-.1875.1876-.4419.2929-.7071.2929zm7-2v-14h-5c-.5304 0-1.0391.21072-1.4142.58579s-.5858.88378-.5858 1.41421v12zm-9 0v-12c0-.53043-.2107-1.03914-.5858-1.41421-.375-.37507-.88375-.58579-1.41419-.58579h-4.99999v14z" fill="#1e64c8"/><path d="m33.875 18h4.6328c2.4063 0 3.8516-1.2031 3.8516-3.1797v-.0156c0-1.4688-1.0156-2.5469-2.5391-2.7109v-.1329c1.1094-.1875 1.9766-1.2421 1.9766-2.41402v-.01563c0-1.72656-1.2735-2.80469-3.3907-2.80469h-4.5312zm4.125-9.84375c1.2969 0 2.0547.61719 2.0547 1.67969v.01562c0 1.09374-.8047 1.67184-2.3516 1.67184h-2.0781v-3.36715zm.0547 4.70315c1.6484 0 2.5156.625 2.5156 1.8359v.0156c0 1.211-.8359 1.8594-2.4141 1.8594h-2.5312v-3.7109zm7.2422-4.8594c.5781 0 1.0625-.47656 1.0625-1.05469 0-.58593-.4844-1.0625-1.0625-1.0625-.586 0-1.0625.47657-1.0625 1.0625 0 .57813.4765 1.05469 1.0625 1.05469zm-.8516 10h1.6875v-8.48438h-1.6875zm8.6641.1406c2.1406 0 3.5156-1.7109 3.5156-4.375v-.0156c0-2.6875-1.3594-4.38281-3.5156-4.38281-1.1641 0-2.1563.57812-2.6094 1.49221h-.125v-4.6719h-1.6953v11.8125h1.6953v-1.3359h.125c.4922.9297 1.4219 1.4765 2.6094 1.4765zm-.4766-1.4453c-1.414 0-2.289-1.1172-2.289-2.9297v-.0156c0-1.8125.875-2.9297 2.289-2.9297 1.4141 0 2.2656 1.1094 2.2656 2.9297v.0156c0 1.8203-.8515 2.9297-2.2656 2.9297zm6.0938 1.3047h1.6953v-11.8125h-1.6953zm5.1015-10c.5781 0 1.0625-.47656 1.0625-1.05469 0-.58593-.4844-1.0625-1.0625-1.0625-.5859 0-1.0625.47657-1.0625 1.0625 0 .57813.4766 1.05469 1.0625 1.05469zm-.8515 10h1.6875v-8.48438h-1.6875zm7.75.1641c2.4843 0 4.0078-1.6641 4.0078-4.3985v-.0156c0-2.7344-1.5313-4.39844-4.0078-4.39844-2.4844 0-4.0157 1.67184-4.0157 4.39844v.0156c0 2.7344 1.5235 4.3985 4.0157 4.3985zm0-1.4141c-1.461 0-2.2813-1.1016-2.2813-2.9844v-.0156c0-1.8828.8203-2.9844 2.2813-2.9844 1.4531 0 2.2812 1.1016 2.2812 2.9844v.0156c0 1.875-.8281 2.9844-2.2812 2.9844z" fill="#4d4d4d"/></svg>