<svg fill="none" height="18" viewBox="0 0 211 18" width="211" xmlns="http://www.w3.org/2000/svg"><g fill="#040606"><path d="m0 0v2.29409h4.68003v13.70591h2.29405v-13.70591h4.68002v-2.29409z"/><path d="m0 16h2.2941v-11.41187h-2.2941z"/><path d="m9.36003 16h2.29417v-11.41187h-2.29417z"/><path d="m30.9151 12.198h-.068c-.1247.578-.4647 1.0597-1.02 1.445-.544.374-1.2694.561-2.176.561-.7027 0-1.3544-.1303-1.955-.391-.6007-.272-1.122-.663-1.564-1.173-.4307-.5213-.7707-1.1617-1.02-1.921-.238-.77067-.357-1.65467-.357-2.652 0-.986.1246-1.85867.374-2.618.2493-.77067.6006-1.41667 1.054-1.938.4533-.52133.9973-.91233 1.632-1.173.6346-.272 1.343-.408 2.125-.408 1.0653 0 1.9663.238 2.703.714.7366.46467 1.309 1.11633 1.717 1.955l-1.564.918c-.2267-.55533-.578-1.003-1.054-1.343-.476-.35133-1.0767-.527-1.802-.527-.9407 0-1.7.30033-2.278.901-.5667.60067-.85 1.45067-.85 2.55v1.938c0 1.0993.2833 1.9493.85 2.55.578.6007 1.3373.901 2.278.901.374 0 .731-.0453 1.071-.136.34-.102.6346-.2437.884-.425.2606-.1927.4646-.425.612-.697.1586-.2833.238-.612.238-.986v-.918h-2.448v-1.649h4.301v6.324h-1.683z"/><path d="m35.1324 1.42h1.853v5.202h.085c.1927-.476.4817-.87267.867-1.19.3967-.31733.935-.476 1.615-.476.9067 0 1.6093.30033 2.108.901.51.58933.765 1.43367.765 2.533v5.61h-1.853v-5.389c0-1.37133-.5553-2.057-1.666-2.057-.238 0-.476.034-.714.102-.2267.05667-.4307.14733-.612.272s-.3287.28333-.442.476c-.102.19267-.153.41367-.153.663v5.933h-1.853z"/><path d="m48.4617 14.204c-.6346 0-1.2013-.1077-1.7-.323-.4986-.2153-.9236-.5213-1.275-.918-.3513-.408-.6233-.8953-.816-1.462-.1813-.578-.272-1.2183-.272-1.921 0-.70267.0907-1.33733.272-1.904.1927-.578.4647-1.06533.816-1.462.3514-.408.7764-.71967 1.275-.935.4987-.21533 1.0654-.323 1.7-.323.646 0 1.2127.11333 1.7.34.4987.22667.9124.544 1.241.952.3287.39667.5724.86133.731 1.394.17.53267.255 1.105.255 1.717v.697h-6.069v.289c0 .68.1984 1.241.595 1.683.408.4307.986.646 1.734.646.544 0 1.003-.119 1.377-.357s.6914-.561.952-.969l1.088 1.071c-.3286.544-.8046.9803-1.428 1.309-.6233.3173-1.3486.476-2.176.476zm0-7.803c-.3173 0-.612.05667-.884.17-.2606.11333-.4873.272-.68.476-.1813.204-.323.44767-.425.731s-.153.595-.153.935v.119h4.114v-.17c0-.68-.1756-1.224-.527-1.632-.3513-.41933-.833-.629-1.445-.629z"/><path d="m54.44 14v-8.84h1.853v1.462h.085c.1927-.476.4817-.87267.867-1.19.3967-.31733.935-.476 1.615-.476.9067 0 1.6093.30033 2.108.901.51.58933.765 1.43367.765 2.533v5.61h-1.853v-5.372c0-1.38267-.5553-2.074-1.666-2.074-.238 0-.476.034-.714.102-.2267.05667-.4307.14733-.612.272s-.3287.28333-.442.476c-.102.19267-.153.41933-.153.68v5.916z"/><path d="m66.7493 14c-.646 0-1.1333-.1643-1.462-.493-.3286-.34-.493-.816-.493-1.428v-5.406h-1.377v-1.513h.748c.306 0 .5157-.068.629-.204.1247-.136.187-.357.187-.663v-1.547h1.666v2.414h1.853v1.513h-1.853v5.814h1.717v1.513z"/><path d="m76.4829 2.134v7.31c0 1.0087.1927 1.768.578 2.278s1.0427.765 1.972.765 1.5867-.255 1.972-.765.578-1.2693.578-2.278v-7.31h1.887v7.004c0 .8727-.0793 1.6263-.238 2.261s-.4137 1.1617-.765 1.581c-.3513.408-.8103.714-1.377.918-.5553.204-1.241.306-2.057.306s-1.5073-.102-2.074-.306c-.5553-.204-1.0087-.51-1.36-.918-.3513-.4193-.6063-.9463-.765-1.581s-.238-1.3883-.238-2.261v-7.004z"/><path d="m86.1822 14v-8.84h1.853v1.462h.085c.1927-.476.4817-.87267.867-1.19.3967-.31733.935-.476 1.615-.476.9067 0 1.6093.30033 2.108.901.51.58933.765 1.43367.765 2.533v5.61h-1.853v-5.372c0-1.38267-.5553-2.074-1.666-2.074-.238 0-.476.034-.714.102-.2267.05667-.4307.14733-.612.272s-.3287.28333-.442.476c-.102.19267-.153.41933-.153.68v5.916z"/><path d="m96.9785 3.579c-.3853 0-.6686-.09067-.85-.272-.17-.18133-.255-.41367-.255-.697v-.289c0-.28333.085-.51567.255-.697.1814-.18133.4647-.272.85-.272.3854 0 .663.09067.833.272s.255.41367.255.697v.289c0 .28333-.085.51567-.255.697s-.4476.272-.833.272zm-.935 1.581h1.853v8.84h-1.853z"/><path d="m102.464 14-3.0094-8.84h1.8364l1.343 4.029.901 3.094h.102l.901-3.094 1.377-4.029h1.768l-3.043 8.84z"/><path d="m112.577 14.204c-.635 0-1.201-.1077-1.7-.323s-.924-.5213-1.275-.918c-.351-.408-.623-.8953-.816-1.462-.181-.578-.272-1.2183-.272-1.921 0-.70267.091-1.33733.272-1.904.193-.578.465-1.06533.816-1.462.351-.408.776-.71967 1.275-.935s1.065-.323 1.7-.323c.646 0 1.213.11333 1.7.34.499.22667.912.544 1.241.952.329.39667.572.86133.731 1.394.17.53267.255 1.105.255 1.717v.697h-6.069v.289c0 .68.198 1.241.595 1.683.408.4307.986.646 1.734.646.544 0 1.003-.119 1.377-.357s.691-.561.952-.969l1.088 1.071c-.329.544-.805.9803-1.428 1.309-.623.3173-1.349.476-2.176.476zm0-7.803c-.317 0-.612.05667-.884.17-.261.11333-.487.272-.68.476-.181.204-.323.44767-.425.731s-.153.595-.153.935v.119h4.114v-.17c0-.68-.176-1.224-.527-1.632-.351-.41933-.833-.629-1.445-.629z"/><path d="m118.555 14v-8.84h1.853v1.7h.085c.125-.45333.386-.85.782-1.19.397-.34.947-.51 1.649-.51h.493v1.785h-.731c-.736 0-1.303.119-1.7.357-.385.238-.578.58933-.578 1.054v5.644z"/><path d="m127.868 14.204c-.839 0-1.541-.1473-2.108-.442s-1.06-.7027-1.479-1.224l1.19-1.088c.329.3967.691.7083 1.088.935.408.2153.878.323 1.411.323.544 0 .946-.102 1.207-.306.272-.2153.408-.51.408-.884 0-.2833-.096-.5213-.289-.714-.181-.204-.504-.3343-.969-.391l-.816-.102c-.907-.1133-1.621-.374-2.142-.782-.51-.41933-.765-1.037-.765-1.853 0-.43067.079-.81033.238-1.139.159-.34.38-.62333.663-.85.295-.238.64-.41933 1.037-.544.408-.12467.856-.187 1.343-.187.793 0 1.439.12467 1.938.374.51.24933.963.595 1.36 1.037l-1.139 1.088c-.227-.272-.527-.50433-.901-.697-.363-.204-.782-.306-1.258-.306-.51 0-.89.102-1.139.306-.238.204-.357.47033-.357.799 0 .34.108.595.323.765s.561.29467 1.037.374l.816.102c.975.14733 1.683.43633 2.125.867.453.4193.68.986.68 1.7 0 .4307-.085.8217-.255 1.173-.159.34-.391.6347-.697.884s-.674.442-1.105.578-.912.204-1.445.204z"/><path d="m134.398 3.579c-.385 0-.668-.09067-.85-.272-.17-.18133-.255-.41367-.255-.697v-.289c0-.28333.085-.51567.255-.697.182-.18133.465-.272.85-.272.386 0 .663.09067.833.272s.255.41367.255.697v.289c0 .28333-.085.51567-.255.697s-.447.272-.833.272zm-.935 1.581h1.853v8.84h-1.853z"/><path d="m140.41 14c-.646 0-1.133-.1643-1.462-.493-.328-.34-.493-.816-.493-1.428v-5.406h-1.377v-1.513h.748c.306 0 .516-.068.629-.204.125-.136.187-.357.187-.663v-1.547h1.666v2.414h1.853v1.513h-1.853v5.814h1.717v1.513z"/><path d="m149.594 5.16h1.785l-3.723 10.591c-.102.2947-.221.544-.357.748-.124.2153-.277.3853-.459.51-.17.136-.379.2323-.629.289-.249.068-.544.102-.884.102h-1.071v-1.513h1.496l.51-1.496-3.213-9.231h1.853l1.768 5.202.51 1.921h.085l.561-1.921z"/><path d="m157.057 14v-11.866h1.921v10.166h4.828v1.7z"/><path d="m166.572 3.579c-.385 0-.668-.09067-.85-.272-.17-.18133-.255-.41367-.255-.697v-.289c0-.28333.085-.51567.255-.697.182-.18133.465-.272.85-.272.386 0 .663.09067.833.272s.255.41367.255.697v.289c0 .28333-.085.51567-.255.697s-.447.272-.833.272zm-.935 1.581h1.853v8.84h-1.853z"/><path d="m170.136 1.42h1.853v5.202h.085c.193-.53267.505-.94067.935-1.224.442-.29467.958-.442 1.547-.442 1.122 0 1.989.408 2.601 1.224.612.80467.918 1.938.918 3.4s-.306 2.601-.918 3.417c-.612.8047-1.479 1.207-2.601 1.207-.589 0-1.105-.1473-1.547-.442-.43-.2947-.742-.7027-.935-1.224h-.085v1.462h-1.853zm3.859 11.186c.646 0 1.162-.204 1.547-.612.386-.4193.578-.969.578-1.649v-1.53c0-.68-.192-1.224-.578-1.632-.385-.41933-.901-.629-1.547-.629-.566 0-1.042.14167-1.428.425-.385.272-.578.63467-.578 1.088v3.026c0 .4533.193.8217.578 1.105.386.272.862.408 1.428.408z"/><path d="m180.197 14v-8.84h1.853v1.7h.085c.125-.45333.385-.85.782-1.19s.946-.51 1.649-.51h.493v1.785h-.731c-.737 0-1.303.119-1.7.357-.385.238-.578.58933-.578 1.054v5.644z"/><path d="m193.049 14c-.487 0-.861-.136-1.122-.408-.261-.2833-.419-.6403-.476-1.071h-.085c-.17.5553-.482.9747-.935 1.258s-1.003.425-1.649.425c-.918 0-1.626-.238-2.125-.714-.487-.476-.731-1.1163-.731-1.921 0-.884.317-1.547.952-1.989.646-.442 1.587-.663 2.822-.663h1.598v-.748c0-.544-.147-.96333-.442-1.258s-.754-.442-1.377-.442c-.521 0-.946.11333-1.275.34s-.606.51567-.833.867l-1.105-1.003c.295-.49867.708-.90667 1.241-1.224.533-.32867 1.23-.493 2.091-.493 1.145 0 2.023.26633 2.635.799s.918 1.29767.918 2.295v4.437h.935v1.513zm-3.74-1.207c.578 0 1.054-.1247 1.428-.374.374-.2607.561-.6063.561-1.037v-1.275h-1.564c-1.281 0-1.921.3967-1.921 1.19v.306c0 .3967.13.697.391.901.272.1927.64.289 1.105.289z"/><path d="m195.902 14v-8.84h1.853v1.7h.085c.125-.45333.385-.85.782-1.19s.946-.51 1.649-.51h.493v1.785h-.731c-.737 0-1.303.119-1.7.357-.385.238-.578.58933-.578 1.054v5.644z"/><path d="m207.982 5.16h1.785l-3.723 10.591c-.102.2947-.221.544-.357.748-.125.2153-.278.3853-.459.51-.17.136-.38.2323-.629.289-.249.068-.544.102-.884.102h-1.071v-1.513h1.496l.51-1.496-3.213-9.231h1.853l1.768 5.202.51 1.921h.085l.561-1.921z"/></g></svg>