<svg fill="none" height="40" viewBox="0 0 40 40" width="40" xmlns="http://www.w3.org/2000/svg"><path d="m3.75 22.5h6.4333c.6964.0002 1.3789.1942 1.9712.5604.5922.3662 1.0708.8901 1.3822 1.5129l.4266.8534c.3115.6231.7904 1.1471 1.383 1.5133.5925.3662 1.2754.5601 1.972.56h5.3634c.6966.0001 1.3795-.1938 1.972-.56.5926-.3662 1.0715-.8902 1.383-1.5133l.4266-.8534c.3115-.6231.7904-1.1471 1.383-1.5133.5925-.3662 1.2754-.5601 1.972-.56h6.4317m-32.5.5633v6.9367c0 .9946.39509 1.9484 1.09835 2.6517.70326.7032 1.65709 1.0983 2.65165 1.0983h25c.9946 0 1.9484-.3951 2.6517-1.0983.7032-.7033 1.0983-1.6571 1.0983-2.6517v-6.9367c0-.3733-.0567-.745-.1667-1.1016l-4.0166-13.06503c-.2359-.76627-.7112-1.43675-1.3561-1.91309-.6449-.47633-1.4255-.73343-2.2273-.73358h-16.965c-.8017.00015-1.58232.25725-2.22723.73358-.64491.47634-1.12018 1.14682-1.35607 1.91309l-4.01833 13.06503c-.11011.3568-.16628.7282-.16667 1.1016z" fill="#e9f0fa"/><path d="m3.75 22.5h6.4333c.6964.0002 1.3789.1942 1.9712.5604.5922.3662 1.0708.8901 1.3822 1.5129l.4266.8534c.3115.6231.7904 1.1471 1.383 1.5133.5925.3662 1.2754.5601 1.972.56h5.3634c.6966.0001 1.3795-.1938 1.972-.56.5926-.3662 1.0715-.8902 1.383-1.5133l.4266-.8534c.3115-.6231.7904-1.1471 1.383-1.5133.5925-.3662 1.2754-.5601 1.972-.56h6.4317m-32.5.5633v6.9367c0 .9946.39509 1.9484 1.09835 2.6517.70326.7032 1.65709 1.0983 2.65165 1.0983h25c.9946 0 1.9484-.3951 2.6517-1.0983.7032-.7033 1.0983-1.6571 1.0983-2.6517v-6.9367c0-.3733-.0567-.745-.1667-1.1016l-4.0166-13.06503c-.2359-.76627-.7112-1.43675-1.3561-1.91309-.6449-.47633-1.4255-.73343-2.2273-.73358h-16.965c-.8017.00015-1.58232.25725-2.22723.73358-.64491.47634-1.12018 1.14682-1.35607 1.91309l-4.01833 13.06503c-.11011.3568-.16628.7282-.16667 1.1016z" stroke="#1e64c8" stroke-linecap="round" stroke-linejoin="round"/></svg>