<svg fill="none" height="48" viewBox="0 0 64 48" width="64" xmlns="http://www.w3.org/2000/svg" xmlns:xlink="http://www.w3.org/1999/xlink"><clipPath id="a"><path d="m0 0h63.1259v48h-63.1259z"/></clipPath><g clip-path="url(#a)" fill="#fff"><path d="m0 43.3612c0-3.529.907592-4.6389 3.22678-4.6389.70579 0 1.31069.2018 1.61338.4036v1.2103c-.30269-.2018-1.00849-.4036-1.51249-.4036-1.51249 0-2.01698.504-2.01698 3.5295 0 2.9245.40311 3.5294 1.71429 3.5294.4031 0 .7058-.1009 1.00849-.1009v-3.0254h-1.41159v-1.1094h2.62187v4.8402c-.30269.2022-1.31069.404-2.21828.404-2.420572 0-3.02547-1.3107-3.02547-4.6388zm6.65535-4.4366h4.13435v1.1094h-2.92456v2.7228h2.31916v1.009h-2.31916v3.0249h2.92456v1.1094h-4.13435zm5.54645 0h1.4116l2.8237 7.0589c-.1009-.7058-.2018-1.6138-.2018-2.42v-4.7398h1.2103v8.8741h-1.4116l-2.8237-7.1598c.1009.7058.2018 1.6134.2018 2.4201v4.7397h-1.2098v-8.7732zm6.2522 0h5.1429v1.1094h-1.9161v7.8656h-1.3107v-7.8661h-1.9161zm-18.252204-6.2522v-6.2523h1.310694v6.2523c0 1.3111.40359 1.7142 1.41159 1.7142.90759 0 1.41159-.4031 1.41159-1.7142v-6.2523h1.31119v6.2523c0 2.0169-.8067 2.8236-2.62188 2.8236-2.01649 0-2.823184-.8067-2.823184-2.8236zm6.958044-6.2523h1.41159l2.82367 7.059c-.1009-.7058-.2018-1.6139-.2018-2.4201v-4.7398h1.2103v8.9745h-1.4116l-2.82367-7.0589c.10089.7058.20179 1.6139.20179 2.4201v4.6388h-1.21028zm7.05896 0h1.3107v8.8736h-1.3107zm2.4201 0h1.3106l1.1094 4.6389c.2018.7058.4031 1.9161.504 2.8232.1009-.9071.3027-2.1169.504-2.8232l1.1094-4.6389h1.3112l-2.3192 8.8736h-1.3112zm6.958 0h4.1344v1.1094h-2.9246v2.7228h2.4201v1.009h-2.3192v3.0244h2.9246v1.0085h-4.1344v-8.8741zm5.6469 0h2.0169c1.6134 0 2.8237.6044 2.8237 2.6219 0 1.4116-.7058 2.1174-1.5125 2.4201l1.9161 3.8316h-1.4121l-1.7143-3.6303h-.8067v3.6303h-1.3107v-8.8736zm1.2102 1.1094v3.1259h.7058c1.0085 0 1.6139-.2018 1.6139-1.6134 0-1.3112-.7058-1.5125-1.6139-1.5125zm5.042 7.6643v-1.2103c.3022.2014.9076.4031 1.5125.4031.8062 0 1.4121-.3026 1.4121-1.2102 0-.7058-.4036-1.1094-.9081-1.6134l-.7058-.6049c-.8062-.7058-1.3107-1.2103-1.3107-2.4201 0-1.4116.9076-2.3192 2.6219-2.3192.6049 0 1.2103.2018 1.4116.3022v1.1099c-.3022-.2018-.8062-.3027-1.3107-.3027-.8067 0-1.4121.3027-1.4121 1.2103 0 .7058.4036 1.1094.9081 1.6134l.7058.6049c.8062.7058 1.3107 1.2103 1.3107 2.4201 0 1.4115-.9081 2.3191-2.6224 2.3191-.7053 0-1.3107-.2018-1.6129-.3022zm5.6469-8.7737h1.2102v8.8736h-1.3111v-8.8736zm2.4205 0h5.1429v1.1094h-1.9161v7.7647h-1.3112v-7.8656h-1.9156zm6.2518 0h4.1343v1.1094h-2.9245v2.7228h2.4201v1.009h-2.3192v3.0244h2.9245v1.0085h-4.1338v-8.8741zm5.6468 0h1.3117v8.8736h-1.3117zm2.521 0h5.1429v1.1094h-1.9156v7.7647h-1.3112v-7.8656h-1.9161z"/><path d="m3.93309 8.16785h-1.21028v8.16835h1.21028z"/><path d="m6.45406 8.16785h-1.21029v8.16835h1.21029z"/><path d="m8.975 8.16785h-1.21029v8.16835h1.21029z"/><path d="m11.496 8.16785h-1.2103v8.16835h1.2103z"/><path d="m14.017 8.16785h-1.2103v8.16835h1.2103z"/><path d="m16.5375 8.16785h-1.2098v8.16835h1.2098z"/><path d="m19.059 8.16785h-1.2103v8.16835h1.2103z"/><path d="m20.3696 17.6469h-18.85712v1.2102h18.85712z"/><path d="m19.0589 6.85714h-16.33613l-1.21029-1.21029h18.85712z"/><path d="m21.5799 20.1678h-21.378118v1.2103h21.378118z"/><path d="m10.8906 0-10.688818 3.83216v1.2098l10.688818-3.83167 10.6893 3.83167v-1.2098z"/></g></svg>