<svg enable-background="new 0 0 128.882 98" height="98" viewBox="0 0 128.882 98" width="128.882" xmlns="http://www.w3.org/2000/svg"><g fill="#1e64c8"><path d="m0 88.529c0-7.205 1.853-9.471 6.588-9.471 1.441 0 2.676.412 3.294.824v2.471c-.618-.412-2.059-.824-3.088-.824-3.088 0-4.118 1.029-4.118 7.206 0 5.971.823 7.206 3.5 7.206.823 0 1.441-.206 2.059-.206v-6.177h-2.882v-2.265h5.353v9.882c-.618.413-2.676.825-4.529.825-4.942 0-6.177-2.676-6.177-9.471zm13.588-9.058h8.441v2.265h-5.971v5.559h4.735v2.06h-4.735v6.176h5.971v2.265h-8.441zm11.324 0h2.882l5.765 14.412c-.206-1.441-.412-3.295-.412-4.941v-9.677h2.471v18.118h-2.882l-5.765-14.618c.206 1.441.412 3.294.412 4.941v9.677h-2.47v-17.912zm12.765 0h10.5v2.265h-3.912v16.059h-2.676v-16.06h-3.912zm-37.265-12.765v-12.765h2.676v12.765c0 2.677.824 3.5 2.882 3.5 1.853 0 2.882-.823 2.882-3.5v-12.765h2.677v12.765c0 4.118-1.647 5.765-5.353 5.765-4.117 0-5.764-1.647-5.764-5.765zm14.206-12.765h2.882l5.765 14.412c-.206-1.441-.412-3.295-.412-4.941v-9.677h2.471v18.323h-2.882l-5.765-14.412c.206 1.441.412 3.295.412 4.941v9.471h-2.471zm14.412 0h2.676v18.117h-2.676zm4.941 0h2.676l2.265 9.471c.412 1.441.823 3.912 1.029 5.764.206-1.852.618-4.322 1.029-5.764l2.265-9.471h2.677l-4.735 18.117h-2.677zm14.206 0h8.441v2.265h-5.971v5.559h4.941v2.06h-4.735v6.175h5.971v2.059h-8.441v-18.118zm11.529 0h4.118c3.294 0 5.765 1.234 5.765 5.353 0 2.882-1.441 4.323-3.088 4.941l3.912 7.823h-2.883l-3.5-7.412h-1.647v7.412h-2.676v-18.117zm2.471 2.265v6.382h1.441c2.059 0 3.295-.412 3.295-3.294 0-2.677-1.441-3.088-3.295-3.088zm10.294 15.648v-2.471c.617.411 1.853.823 3.088.823 1.646 0 2.883-.618 2.883-2.471 0-1.441-.824-2.265-1.854-3.294l-1.441-1.235c-1.646-1.441-2.676-2.471-2.676-4.941 0-2.882 1.853-4.735 5.353-4.735 1.235 0 2.471.412 2.882.617v2.266c-.617-.412-1.646-.618-2.676-.618-1.647 0-2.883.618-2.883 2.471 0 1.441.824 2.265 1.854 3.294l1.441 1.235c1.646 1.441 2.676 2.471 2.676 4.941 0 2.882-1.854 4.735-5.354 4.735-1.44 0-2.676-.412-3.293-.617zm11.529-17.913h2.471v18.117h-2.677v-18.117zm4.942 0h10.5v2.265h-3.912v15.853h-2.677v-16.059h-3.911zm12.764 0h8.441v2.265h-5.971v5.559h4.941v2.06h-4.735v6.175h5.971v2.059h-8.44v-18.118zm11.529 0h2.678v18.117h-2.678zm5.147 0h10.5v2.265h-3.911v15.853h-2.677v-16.059h-3.912z"/><path d="m5.559 16.676h2.471v16.677h-2.471z"/><path d="m10.706 16.676h2.471v16.677h-2.471z"/><path d="m15.853 16.676h2.471v16.677h-2.471z"/><path d="m21 16.676h2.471v16.677h-2.471z"/><path d="m26.147 16.676h2.471v16.677h-2.471z"/><path d="m31.294 16.676h2.47v16.677h-2.47z"/><path d="m36.441 16.676h2.471v16.677h-2.471z"/><path d="m3.088 36.029h38.5v2.471h-38.5z"/><path d="m38.912 14h-33.353l-2.471-2.471h38.5z"/><path d="m.412 41.176h43.647v2.471h-43.647z"/><path d="m22.235 0-21.823 7.824v2.47l21.823-7.823 21.824 7.823v-2.47z"/></g></svg>