<svg fill="none" height="16" viewBox="0 0 208 16" width="208" xmlns="http://www.w3.org/2000/svg"><g fill="#040606"><path d="m0 0v2.29409h4.68003v13.70591h2.29405v-13.70591h4.68002v-2.29409z"/><path d="m0 16h2.2941v-11.41187h-2.2941z"/><path d="m9.36003 16h2.29417v-11.41187h-2.29417z"/><path d="m25.1013 2.134v7.31c0 1.0087.1927 1.768.578 2.278s1.0427.765 1.972.765 1.5867-.255 1.972-.765.578-1.2693.578-2.278v-7.31h1.887v7.004c0 .8727-.0793 1.6263-.238 2.261s-.4137 1.1617-.765 1.581c-.3513.408-.8103.714-1.377.918-.5553.204-1.241.306-2.057.306s-1.5073-.102-2.074-.306c-.5553-.204-1.0087-.51-1.36-.918-.3513-.4193-.6063-.9463-.765-1.581s-.238-1.3883-.238-2.261v-7.004z"/><path d="m34.8006 14v-8.84h1.853v1.462h.085c.1927-.476.4817-.87267.867-1.19.3967-.31733.935-.476 1.615-.476.9067 0 1.6093.30033 2.108.901.51.58933.765 1.43367.765 2.533v5.61h-1.853v-5.372c0-1.38267-.5553-2.074-1.666-2.074-.238 0-.476.034-.714.102-.2267.05667-.4307.14733-.612.272s-.3287.28333-.442.476c-.102.19267-.153.41933-.153.68v5.916z"/><path d="m45.5969 3.579c-.3853 0-.6686-.09067-.85-.272-.17-.18133-.255-.41367-.255-.697v-.289c0-.28333.085-.51567.255-.697.1814-.18133.4647-.272.85-.272.3854 0 .663.09067.833.272s.255.41367.255.697v.289c0 .28333-.085.51567-.255.697s-.4476.272-.833.272zm-.935 1.581h1.853v8.84h-1.853z"/><path d="m51.082 14-3.009-8.84h1.836l1.343 4.029.901 3.094h.102l.901-3.094 1.377-4.029h1.768l-3.043 8.84z"/><path d="m61.1954 14.204c-.6347 0-1.2014-.1077-1.7-.323-.4987-.2153-.9237-.5213-1.275-.918-.3514-.408-.6234-.8953-.816-1.462-.1814-.578-.272-1.2183-.272-1.921 0-.70267.0906-1.33733.272-1.904.1926-.578.4646-1.06533.816-1.462.3513-.408.7763-.71967 1.275-.935.4986-.21533 1.0653-.323 1.7-.323.646 0 1.2126.11333 1.7.34.4986.22667.9123.544 1.241.952.3286.39667.5723.86133.731 1.394.17.53267.255 1.105.255 1.717v.697h-6.069v.289c0 .68.1983 1.241.595 1.683.408.4307.986.646 1.734.646.544 0 1.003-.119 1.377-.357s.6913-.561.952-.969l1.088 1.071c-.3287.544-.8047.9803-1.428 1.309-.6234.3173-1.3487.476-2.176.476zm0-7.803c-.3174 0-.612.05667-.884.17-.2607.11333-.4874.272-.68.476-.1814.204-.323.44767-.425.731s-.153.595-.153.935v.119h4.114v-.17c0-.68-.1757-1.224-.527-1.632-.3514-.41933-.833-.629-1.445-.629z"/><path d="m67.1737 14v-8.84h1.853v1.7h.085c.1246-.45333.3853-.85.782-1.19.3966-.34.9463-.51 1.649-.51h.493v1.785h-.731c-.7367 0-1.3034.119-1.7.357-.3854.238-.578.58933-.578 1.054v5.644z"/><path d="m76.4865 14.204c-.8387 0-1.5414-.1473-2.108-.442-.5667-.2947-1.0597-.7027-1.479-1.224l1.19-1.088c.3286.3967.6913.7083 1.088.935.408.2153.8783.323 1.411.323.544 0 .9463-.102 1.207-.306.272-.2153.408-.51.408-.884 0-.2833-.0964-.5213-.289-.714-.1814-.204-.5044-.3343-.969-.391l-.816-.102c-.9067-.1133-1.6207-.374-2.142-.782-.51-.41933-.765-1.037-.765-1.853 0-.43067.0793-.81033.238-1.139.1586-.34.3796-.62333.663-.85.2946-.238.6403-.41933 1.037-.544.408-.12467.8556-.187 1.343-.187.7933 0 1.4393.12467 1.938.374.51.24933.9633.595 1.36 1.037l-1.139 1.088c-.2267-.272-.527-.50433-.901-.697-.3627-.204-.782-.306-1.258-.306-.51 0-.8897.102-1.139.306-.238.204-.357.47033-.357.799 0 .34.1076.595.323.765.2153.17.561.29467 1.037.374l.816.102c.9746.14733 1.683.43633 2.125.867.4533.4193.68.986.68 1.7 0 .4307-.085.8217-.255 1.173-.1587.34-.391.6347-.697.884s-.6744.442-1.105.578c-.4307.136-.9124.204-1.445.204z"/><path d="m83.0169 3.579c-.3854 0-.6687-.09067-.85-.272-.17-.18133-.255-.41367-.255-.697v-.289c0-.28333.085-.51567.255-.697.1813-.18133.4646-.272.85-.272.3853 0 .663.09067.833.272s.255.41367.255.697v.289c0 .28333-.085.51567-.255.697s-.4477.272-.833.272zm-.935 1.581h1.853v8.84h-1.853z"/><path d="m89.0289 14c-.646 0-1.1334-.1643-1.462-.493-.3287-.34-.493-.816-.493-1.428v-5.406h-1.377v-1.513h.748c.306 0 .5156-.068.629-.204.1246-.136.187-.357.187-.663v-1.547h1.666v2.414h1.853v1.513h-1.853v5.814h1.717v1.513z"/><path d="m96.1915 14.204c-.6347 0-1.2014-.1077-1.7-.323-.4987-.2153-.9237-.5213-1.275-.918-.3514-.408-.6234-.8953-.816-1.462-.1814-.578-.272-1.2183-.272-1.921 0-.70267.0906-1.33733.272-1.904.1926-.578.4646-1.06533.816-1.462.3513-.408.7763-.71967 1.275-.935.4986-.21533 1.0653-.323 1.7-.323.646 0 1.2126.11333 1.7.34.4986.22667.9123.544 1.241.952.3286.39667.5723.86133.731 1.394.1695.53267.2545 1.105.2545 1.717v.697h-6.0685v.289c0 .68.1983 1.241.595 1.683.408.4307.986.646 1.734.646.544 0 1.003-.119 1.377-.357s.6913-.561.952-.969l1.088 1.071c-.3287.544-.8047.9803-1.428 1.309-.6234.3173-1.3487.476-2.176.476zm0-7.803c-.3174 0-.612.05667-.884.17-.2607.11333-.4874.272-.68.476-.1814.204-.323.44767-.425.731s-.153.595-.153.935v.119h4.114v-.17c0-.68-.1757-1.224-.527-1.632-.3514-.41933-.833-.629-1.445-.629z"/><path d="m103.105 3.579c-.386 0-.669-.09067-.85-.272-.17-.18133-.255-.41367-.255-.697v-.289c0-.28333.085-.51567.255-.697.181-.18133.464-.272.85-.272.385 0 .663.09067.833.272s.255.41367.255.697v.289c0 .28333-.085.51567-.255.697s-.448.272-.833.272zm-.935 1.581h1.853v8.84h-1.853z"/><path d="m109.117 14c-.646 0-1.134-.1643-1.462-.493-.329-.34-.493-.816-.493-1.428v-5.406h-1.377v-1.513h.748c.306 0 .515-.068.629-.204.124-.136.187-.357.187-.663v-1.547h1.666v2.414h1.853v1.513h-1.853v5.814h1.717v1.513z"/><path d="m115.683 14.204c-.839 0-1.542-.1473-2.108-.442-.567-.2947-1.06-.7027-1.479-1.224l1.19-1.088c.328.3967.691.7083 1.088.935.408.2153.878.323 1.411.323.544 0 .946-.102 1.207-.306.272-.2153.408-.51.408-.884 0-.2833-.097-.5213-.289-.714-.182-.204-.505-.3343-.969-.391l-.816-.102c-.907-.1133-1.621-.374-2.142-.782-.51-.41933-.765-1.037-.765-1.853 0-.43067.079-.81033.238-1.139.158-.34.379-.62333.663-.85.294-.238.64-.41933 1.037-.544.408-.12467.855-.187 1.343-.187.793 0 1.439.12467 1.938.374.51.24933.963.595 1.36 1.037l-1.139 1.088c-.227-.272-.527-.50433-.901-.697-.363-.204-.782-.306-1.258-.306-.51 0-.89.102-1.139.306-.238.204-.357.47033-.357.799 0 .34.107.595.323.765.215.17.561.29467 1.037.374l.816.102c.974.14733 1.683.43633 2.125.867.453.4193.68.986.68 1.7 0 .4307-.085.8217-.255 1.173-.159.34-.391.6347-.697.884s-.675.442-1.105.578c-.431.136-.913.204-1.445.204z"/><path d="m121.278 1.42h1.853v5.202h.085c.193-.53267.504-.94067.935-1.224.442-.29467.958-.442 1.547-.442 1.122 0 1.989.408 2.601 1.224.612.80467.918 1.938.918 3.4s-.306 2.601-.918 3.417c-.612.8047-1.479 1.207-2.601 1.207-.589 0-1.105-.1473-1.547-.442-.431-.2947-.742-.7027-.935-1.224h-.085v1.462h-1.853zm3.859 11.186c.646 0 1.162-.204 1.547-.612.385-.4193.578-.969.578-1.649v-1.53c0-.68-.193-1.224-.578-1.632-.385-.41933-.901-.629-1.547-.629-.567 0-1.043.14167-1.428.425-.385.272-.578.63467-.578 1.088v3.026c0 .4533.193.8217.578 1.105.385.272.861.408 1.428.408z"/><path d="m132.274 3.579c-.386 0-.669-.09067-.85-.272-.17-.18133-.255-.41367-.255-.697v-.289c0-.28333.085-.51567.255-.697.181-.18133.464-.272.85-.272.385 0 .663.09067.833.272s.255.41367.255.697v.289c0 .28333-.085.51567-.255.697s-.448.272-.833.272zm-.935 1.581h1.853v8.84h-1.853z"/><path d="m135.838 1.42h1.853v5.202h.085c.192-.53267.504-.94067.935-1.224.442-.29467.957-.442 1.547-.442 1.122 0 1.989.408 2.601 1.224.612.80467.918 1.938.918 3.4s-.306 2.601-.918 3.417c-.612.8047-1.479 1.207-2.601 1.207-.59 0-1.105-.1473-1.547-.442-.431-.2947-.743-.7027-.935-1.224h-.085v1.462h-1.853zm3.859 11.186c.646 0 1.161-.204 1.547-.612.385-.4193.578-.969.578-1.649v-1.53c0-.68-.193-1.224-.578-1.632-.386-.41933-.901-.629-1.547-.629-.567 0-1.043.14167-1.428.425-.386.272-.578.63467-.578 1.088v3.026c0 .4533.192.8217.578 1.105.385.272.861.408 1.428.408z"/><path d="m147.785 14c-.634 0-1.11-.1587-1.428-.476-.306-.3287-.459-.782-.459-1.36v-10.744h1.853v11.067h1.224v1.513z"/><path d="m151.681 3.579c-.385 0-.669-.09067-.85-.272-.17-.18133-.255-.41367-.255-.697v-.289c0-.28333.085-.51567.255-.697.181-.18133.465-.272.85-.272s.663.09067.833.272.255.41367.255.697v.289c0 .28333-.085.51567-.255.697s-.448.272-.833.272zm-.935 1.581h1.853v8.84h-1.853z"/><path d="m158.713 14.204c-.612 0-1.173-.1077-1.683-.323-.499-.2153-.924-.5213-1.275-.918-.351-.408-.623-.8953-.816-1.462-.193-.578-.289-1.2183-.289-1.921 0-.70267.096-1.33733.289-1.904.193-.578.465-1.06533.816-1.462.351-.408.776-.71967 1.275-.935.51-.21533 1.071-.323 1.683-.323s1.167.10767 1.666.323c.51.21533.941.527 1.292.935.351.39667.623.884.816 1.462.193.56667.289 1.20133.289 1.904 0 .7027-.096 1.343-.289 1.921-.193.5667-.465 1.054-.816 1.462-.351.3967-.782.7027-1.292.918-.499.2153-1.054.323-1.666.323zm0-1.53c.635 0 1.145-.1927 1.53-.578.385-.3967.578-.986.578-1.768v-1.496c0-.782-.193-1.36567-.578-1.751-.385-.39667-.895-.595-1.53-.595s-1.145.19833-1.53.595c-.385.38533-.578.969-.578 1.751v1.496c0 .782.193 1.3713.578 1.768.385.3853.895.578 1.53.578z"/><path d="m167.239 14c-.646 0-1.133-.1643-1.462-.493-.329-.34-.493-.816-.493-1.428v-5.406h-1.377v-1.513h.748c.306 0 .516-.068.629-.204.125-.136.187-.357.187-.663v-1.547h1.666v2.414h1.853v1.513h-1.853v5.814h1.717v1.513z"/><path d="m171 1.42h1.853v5.202h.085c.193-.476.481-.87267.867-1.19.396-.31733.935-.476 1.615-.476.906 0 1.609.30033 2.108.901.51.58933.765 1.43367.765 2.533v5.61h-1.853v-5.389c0-1.37133-.555-2.057-1.666-2.057-.238 0-.476.034-.714.102-.227.05667-.431.14733-.612.272-.182.12467-.329.28333-.442.476-.102.19267-.153.41367-.153.663v5.933h-1.853z"/><path d="m184.329 14.204c-.635 0-1.201-.1077-1.7-.323s-.924-.5213-1.275-.918c-.351-.408-.623-.8953-.816-1.462-.181-.578-.272-1.2183-.272-1.921 0-.70267.091-1.33733.272-1.904.193-.578.465-1.06533.816-1.462.351-.408.776-.71967 1.275-.935s1.065-.323 1.7-.323c.646 0 1.213.11333 1.7.34.499.22667.912.544 1.241.952.329.39667.572.86133.731 1.394.17.53267.255 1.105.255 1.717v.697h-6.069v.289c0 .68.198 1.241.595 1.683.408.4307.986.646 1.734.646.544 0 1.003-.119 1.377-.357s.691-.561.952-.969l1.088 1.071c-.329.544-.805.9803-1.428 1.309-.623.3173-1.349.476-2.176.476zm0-7.803c-.317 0-.612.05667-.884.17-.261.11333-.487.272-.68.476-.181.204-.323.44767-.425.731s-.153.595-.153.935v.119h4.114v-.17c0-.68-.176-1.224-.527-1.632-.351-.41933-.833-.629-1.445-.629z"/><path d="m193.775 14.204c-.634 0-1.201-.1077-1.7-.323-.498-.2153-.923-.5213-1.275-.918-.351-.408-.623-.8953-.816-1.462-.181-.578-.272-1.2183-.272-1.921 0-.70267.091-1.33733.272-1.904.193-.578.465-1.06533.816-1.462.352-.408.777-.71967 1.275-.935.499-.21533 1.066-.323 1.7-.323.646 0 1.213.11333 1.7.34.499.22667.913.544 1.241.952.329.39667.573.86133.731 1.394.17.53267.255 1.105.255 1.717v.697h-6.069v.289c0 .68.199 1.241.595 1.683.408.4307.986.646 1.734.646.544 0 1.003-.119 1.377-.357s.692-.561.952-.969l1.088 1.071c-.328.544-.804.9803-1.428 1.309-.623.3173-1.348.476-2.176.476zm0-7.803c-.317 0-.612.05667-.884.17-.26.11333-.487.272-.68.476-.181.204-.323.44767-.425.731s-.153.595-.153.935v.119h4.114v-.17c0-.68-.175-1.224-.527-1.632-.351-.41933-.833-.629-1.445-.629z"/><path d="m199.754 1.42h1.853v7.718h.085l1.224-1.581 2.125-2.397h2.159l-3.094 3.417 3.468 5.423h-2.21l-2.533-4.216-1.224 1.326v2.89h-1.853z"/></g></svg>