<svg height="29" viewBox="0 0 34 29" width="34" xmlns="http://www.w3.org/2000/svg"><g fill="none" fill-rule="evenodd" transform="translate(1 .999996)"><path d="m1.6000016 25c-.42435242 0-.83132883-.1462348-1.13137713-.4067903-.3000643-.2604166-.46862447-.6137499-.46862447-.9820832v-22.22221882c0-.36834717.16856017-.7216249.46862447-.98208319.3000483-.26047219.70702471-.40682449 1.13137713-.40682449h9.5999936c.9081449-.00091156 1.8060658.1663523 2.6337466.49064392.8278409.32429162 1.5662416.79815266 2.1662422 1.38993035.6000006-.59177769 1.3385613-1.06563873 2.1662422-1.38993035.8276808-.32429162 1.7256017-.49155548 2.6337626-.49064392h9.6000096c.4243204 0 .8313608.1463523 1.1313611.40682449.3001603.26045829.4686405.61373602.4686405.98208319v22.22221882c0 .3683333-.1684802.7216666-.4686405.9820832-.3000003.2605555-.7070407.4067903-1.1313611.4067903zm14.3999984-23.03571395v25.53571765" fill="#e9f0fa" fill-rule="nonzero"/><path d="m1.6000016 25c-.42435242 0-.83132883-.1462348-1.13137713-.4067903-.3000643-.2604166-.46862447-.6137499-.46862447-.9820832v-22.22221882c0-.36834717.16856017-.7216249.46862447-.98208319.3000483-.26047219.70702471-.40682449 1.13137713-.40682449h9.5999936c.9081449-.00091156 1.8060658.1663523 2.6337466.49064392.8278409.32429162 1.5662416.79815266 2.1662422 1.38993035.6000006-.59177769 1.3385613-1.06563873 2.1662422-1.38993035.8276808-.32429162 1.7256017-.49155548 2.6337626-.49064392h9.6000096c.4243204 0 .8313608.1463523 1.1313611.40682449.3001603.26045829.4686405.61373602.4686405.98208319v22.22221882c0 .3683333-.1684802.7216666-.4686405.9820832-.3000003.2605555-.7070407.4067903-1.1313611.4067903zm14.3999984-23.03571395v25.53571765" stroke="#1e64c8" stroke-linecap="round" stroke-linejoin="round"/></g></svg>