<svg fill="none" height="1080" viewBox="0 0 1080 1080" width="1080" xmlns="http://www.w3.org/2000/svg"><path d="m0 0h1080v1080h-1080z" fill="#fff"/><g fill="#0064cc"><path d="m241.221 231.896h-14.893v96.74h14.893z"/><path d="m211.446 231.896h-14.893v96.74h14.893z"/><path d="m181.656 231.896h-14.894v96.74h14.894z"/><path d="m151.865 231.896h-14.894v96.74h14.894z"/><path d="m271.011 231.896h-14.892v96.74h14.892z"/><path d="m300.804 231.896h-14.894v96.74h14.894z"/><path d="m330.578 231.896h-14.894v96.74h14.894z"/><path d="m345.828 343.539h-224.107v14.914h224.107z"/><path d="m330.589 216.992h-193.618l-14.887-14.901h223.392z"/><path d="m360.725 373.344h-253.891v14.913h253.891z"/><path d="m360.725 177.986-126.937-44.986-126.954 44.986v15.826l126.954-44.983 126.937 44.983z"/><path d="m230.092 505.384h-32.088v47.821h-14.904v-105.369h14.904v44.907h32.088v-44.907h14.905v105.369h-14.905z"/><path d="m556.467 607.333c6.58-.023 12.78 2.134 15.63 4.375v-13.43c-2.85-1.753-9.844-3.702-16.925-3.702-19.774 0-30.655 11.25-30.655 27.567 0 13.607 5.751 20.141 15.025 28.147l8.48 7.329c6.995 5.86 11.347 10.375 11.347 19.138 0 10.248-6.77 14.307-16.925 14.307-7.703 0-14.093-2.134-17.771-4.679v13.667c3.229 1.868 9.982 3.793 19.101 3.769 19.722-.047 30.603-11.262 30.62-27.565.017-13.596-5.751-20.142-15.025-28.137l-8.48-7.341c-7.012-6.008-11.364-10.351-11.347-19.104.035-10.292 6.753-14.317 16.925-14.341z"/><path d="m464.952 609.165v37.135h7.944c11.658 0 19.447-2.451 19.447-18.65 0-16.057-7.789-18.485-19.447-18.485zm-14.904-12.652h24.299c19.446 0 33.366 7.307 33.366 31.137 0 16.688-8.082 24.786-18.289 28.522l22.348 45.722h-17.011l-19.775-42.967h-10.034v42.967h-14.904z"/><path d="m106.834 670.118v-73.593h14.904v74.246c0 15.569 5.354 20.096 16.2 20.096 10.863 0 16.2-4.527 16.2-20.096v-74.246h14.904v73.593c0 23.993-10.034 33.726-31.104 33.726-21.381 0-31.104-9.405-31.104-33.726z"/><path d="m188.316 596.525h17.184l33.21 83.968c-1.139-8.59-2.107-18.639-2.107-28.045v-55.923h14.266v105.371h-17.184l-33.539-84.293c1.295 8.589 2.435 18.8 2.435 28.37v55.923h-14.265z"/><path d="m286.862 596.525h-14.906v105.369h14.906z"/><path d="m300.711 596.525h15.561l13.28 54.793c1.952 8.274 4.37 22.208 5.838 33.235 1.451-11.027 3.886-24.961 6.148-33.235l13.125-54.793h15.06l-26.717 105.371h-15.561z"/><path d="m383.574 596.525h49.255v12.652h-34.351v32.255h27.702v12.476h-27.702v35.349h34.351v12.639h-49.255z"/><path d="m606.985 596.525h-14.906v105.369h14.906z"/><path d="m103.604 500.528c0-41.499 11.002-54.641 38.392-54.641 7.772 0 16.027 2.114 19.602 4.225v13.771c-3.886-2.263-11.346-4.702-18.479-4.702-17.495 0-24.127 6.488-24.127 41.347 0 34.52 4.698 41.65 19.93 41.65 4.698 0 8.584-.641 11.485-1.458v-35.176h-15.543v-12.637h30.447v56.892c-3.074 1.948-15.387 5.356-26.233 5.356-28.514 0-35.474-14.914-35.474-54.627z"/><path d="m266.084 447.836h49.255v12.652h-34.334v32.255h27.702v12.477h-27.702v35.348h34.334v12.639h-49.255z"/><path d="m332.557 447.836h17.184l33.211 83.967c-1.14-8.589-2.107-18.638-2.107-28.044v-55.923h14.248v105.371h-17.166l-33.539-84.295c1.295 8.591 2.435 18.802 2.435 28.37v55.925h-14.266z"/><path d="m408.737 447.836h60.429v12.652h-22.832v92.719h-14.921v-92.719h-22.676z"/><path d="m716.287 658.134-28.841-61.609h16.372l12.469 28.37c2.919 6.806 5.682 14.098 7.461 20.587 1.934-6.489 4.853-13.781 7.772-20.587l12.469-28.37h15.888l-28.686 61.609v43.762h-14.904z"/><path d="m621.145 596.525h60.429v12.652h-22.849v92.719h-14.904v-92.719h-22.676z"/><path d="m107 836.868h25.746c5.061 0 9.6.577 13.616 1.732 4.016 1.156 7.399 3.081 10.15 5.777 2.805 2.64 4.923 6.161 6.354 10.562 1.485 4.346 2.228 9.71 2.228 16.092 0 6.216-.77 11.497-2.311 15.843-1.485 4.346-3.631 7.895-6.436 10.645-2.806 2.696-6.217 4.649-10.233 5.859-3.961 1.211-8.417 1.816-13.368 1.816h-10.562v38.949h-15.184zm15.184 12.873v42.745h8.912c2.97 0 5.584-.303 7.839-.908 2.311-.66 4.236-1.788 5.776-3.383 1.541-1.596 2.696-3.769 3.466-6.519.825-2.806 1.238-6.354 1.238-10.645s-.413-7.812-1.238-10.563c-.77-2.751-1.925-4.924-3.466-6.519-1.54-1.595-3.465-2.696-5.776-3.301-2.255-.605-4.869-.907-7.839-.907z"/><path d="m184.238 836.868h15.184v94.402h33.338v12.873h-48.522z"/><path d="m273.722 836.868h15.679l28.552 107.275h-15.844l-6.271-24.261h-29.212l-6.107 24.261h-15.348zm-4.126 70.141h23.601l-4.456-17.824c-.605-2.201-1.238-4.676-1.898-7.427-.605-2.805-1.238-5.694-1.898-8.664-.605-3.026-1.21-6.107-1.815-9.243-.55-3.135-1.046-6.189-1.486-9.159-.495 2.97-1.072 6.024-1.733 9.159-.605 3.136-1.237 6.217-1.898 9.243-.66 2.97-1.32 5.859-1.98 8.664-.66 2.751-1.265 5.226-1.815 7.427z"/><path d="m317.623 836.868h61.559v12.873h-23.27v94.402h-15.184v-94.402h-23.105z"/><path d="m420.442 946.123c-3.796 0-7.262-.33-10.397-.99-3.081-.66-5.832-1.788-8.252-3.383-2.421-1.651-4.539-3.824-6.354-6.519-1.761-2.751-3.218-6.162-4.374-10.233-1.155-4.126-2.035-9.022-2.64-14.688-.551-5.666-.826-12.268-.826-19.805 0-11.112.661-20.245 1.981-27.396 1.32-7.207 3.328-12.901 6.024-17.082 2.75-4.181 6.189-7.069 10.315-8.664 4.126-1.651 8.967-2.476 14.523-2.476 5.722 0 10.645.798 14.771 2.393 4.181 1.596 7.619 4.456 10.315 8.582s4.676 9.793 5.942 16.999c1.32 7.207 1.98 16.422 1.98 27.644 0 7.427-.303 13.974-.908 19.64-.55 5.611-1.43 10.48-2.64 14.606-1.211 4.126-2.723 7.564-4.539 10.315-1.815 2.695-3.961 4.868-6.436 6.519-2.421 1.65-5.172 2.806-8.252 3.466-3.081.715-6.492 1.072-10.233 1.072zm0-13.203c3.466 0 6.299-.632 8.5-1.898 2.255-1.265 4.043-3.493 5.363-6.684 1.321-3.19 2.229-7.509 2.724-12.955.495-5.502.742-12.461.742-20.878s-.247-15.348-.742-20.795c-.495-5.501-1.403-9.847-2.724-13.038-1.32-3.191-3.108-5.419-5.363-6.684-2.201-1.265-5.034-1.898-8.5-1.898s-6.326.633-8.582 1.898c-2.2 1.265-3.933 3.493-5.199 6.684-1.265 3.191-2.145 7.537-2.64 13.038-.495 5.447-.743 12.378-.743 20.795s.248 15.376.743 20.878c.495 5.446 1.375 9.765 2.64 12.955 1.266 3.191 2.999 5.419 5.199 6.684 2.256 1.266 5.116 1.898 8.582 1.898z"/><path clip-rule="evenodd" d="m978 771.887h-877v-16h877z" fill-rule="evenodd"/></g></svg>