<?xml version="1.0" encoding="UTF-8"?>
<svg width="34px" height="29px" viewBox="0 0 34 29" version="1.1" xmlns="http://www.w3.org/2000/svg" xmlns:xlink="http://www.w3.org/1999/xlink">
    <title>book-illustration</title>
    <g id="Page-1" stroke="none" stroke-width="1" fill="none" fill-rule="evenodd">
        <g id="book-illustration" transform="translate(1.000000, 0.999996)">
            <path d="M1.6000016,25 C1.17564918,25 0.768672769,24.8537652 0.468624469,24.5932097 C0.168560169,24.3327931 0,23.9794598 0,23.6111265 L0,1.38890768 C0,1.02056051 0.168560169,0.667282781 0.468624469,0.406824487 C0.768672769,0.146352304 1.17564918,0 1.6000016,0 L11.1999952,0 C12.1081401,-0.000911562756 13.006061,0.166352301 13.8337418,0.490643918 C14.6615827,0.814935536 15.3999834,1.28879658 15.999984,1.88057427 C16.5999846,1.28879658 17.3385453,0.814935536 18.1662262,0.490643918 C18.993907,0.166352301 19.8918279,-0.000911562756 20.7999888,0 L30.3999984,0 C30.8243188,0 31.2313592,0.146352304 31.5313595,0.406824487 C31.8315198,0.667282781 32,1.02056051 32,1.38890768 L32,23.6111265 C32,23.9794598 31.8315198,24.3327931 31.5313595,24.5932097 C31.2313592,24.8537652 30.8243188,25 30.3999984,25 L1.6000016,25 Z M16,1.96428605 L16,27.5000037" id="Shape-fill" fill="#E9F0FA" fill-rule="nonzero"></path>
            <path d="M1.6000016,25 C1.17564918,25 0.768672769,24.8537652 0.468624469,24.5932097 C0.168560169,24.3327931 0,23.9794598 0,23.6111265 L0,1.38890768 C0,1.02056051 0.168560169,0.667282781 0.468624469,0.406824487 C0.768672769,0.146352304 1.17564918,0 1.6000016,0 L11.1999952,0 C12.1081401,-0.000911562756 13.006061,0.166352301 13.8337418,0.490643918 C14.6615827,0.814935536 15.3999834,1.28879658 15.999984,1.88057427 C16.5999846,1.28879658 17.3385453,0.814935536 18.1662262,0.490643918 C18.993907,0.166352301 19.8918279,-0.000911562756 20.7999888,0 L30.3999984,0 C30.8243188,0 31.2313592,0.146352304 31.5313595,0.406824487 C31.8315198,0.667282781 32,1.02056051 32,1.38890768 L32,23.6111265 C32,23.9794598 31.8315198,24.3327931 31.5313595,24.5932097 C31.2313592,24.8537652 30.8243188,25 30.3999984,25 L1.6000016,25 Z M16,1.96428605 L16,27.5000037" id="Shape-border" stroke="#1E64C8" stroke-linecap="round" stroke-linejoin="round"></path>
        </g>
    </g>
</svg>