<?xml version="1.0" encoding="UTF-8"?>
<svg width="185px" height="16px" viewBox="0 0 185 16" version="1.1" xmlns="http://www.w3.org/2000/svg" xmlns:xlink="http://www.w3.org/1999/xlink">
    <title>ghent-university-library-logo</title>
    <g id="Page-1" stroke="none" stroke-width="1" fill="none" fill-rule="evenodd">
        <g id="ghent-university-library-logo" fill="#040606" fill-rule="nonzero">
            <polygon id="Path" points="0 0 0 2.02322887 4.12746309 2.02322887 4.12746309 14.1108945 6.15065668 14.1108945 6.15065668 2.02322887 10.278111 2.02322887 10.278111 0"></polygon>
            <polygon id="Path" points="0 14.1108945 2.02323769 14.1108945 2.02323769 4.04641364 0 4.04641364"></polygon>
            <polygon id="Path" points="8.25489972 14.1108945 10.2781991 14.1108945 10.2781991 4.04641364 8.25489972 4.04641364"></polygon>
            <path d="M27.2649821,10.7577932 L27.2050108,10.7577932 C27.095034,11.2675492 26.7951775,11.6923753 26.3054413,12.0321833 C25.8256709,12.3620255 25.1859182,12.5269466 24.3863596,12.5269466 C23.7666268,12.5269466 23.1918724,12.412031 22.6621847,12.1821116 C22.1324088,11.9422264 21.6726582,11.5973914 21.2828448,11.1476066 C20.9029971,10.687856 20.6031406,10.1230675 20.3832753,9.45341736 C20.1733757,8.77373967 20.0684259,7.99411275 20.0684259,7.1145366 C20.0684259,6.24495273 20.1783145,5.47531809 20.3982681,4.8056415 C20.6181335,4.12596381 20.9279558,3.55623644 21.3278233,3.0964594 C21.7276025,2.63668237 22.2073729,2.29184738 22.7671345,2.06195445 C23.3268078,1.82206925 23.9515677,1.70212665 24.6412377,1.70212665 C25.5807587,1.70212665 26.3753784,1.9120262 27.0250969,2.33182531 C27.6747272,2.74163214 28.1795444,3.31635124 28.5393723,4.05600023 L27.1600323,4.8656128 C26.9600986,4.37585011 26.6502763,3.9810361 26.2304771,3.68117959 C25.810678,3.37133081 25.2809021,3.21640201 24.6412377,3.21640201 C23.8116053,3.21640201 23.1419551,3.48127232 22.6321991,4.01102175 C22.1324088,4.54077119 21.8825578,5.29041246 21.8825578,6.25994556 L21.8825578,7.96912765 C21.8825578,8.93863429 22.1324088,9.68827556 22.6321991,10.2180515 C23.1419551,10.7478274 23.8116053,11.0126712 24.6412377,11.0126712 C24.9710798,11.0126712 25.2859291,10.9727197 25.5857857,10.8927286 C25.8856422,10.8027716 26.145459,10.677802 26.3654126,10.517908 C26.5952438,10.3479599 26.7751577,10.1430873 26.9051543,9.90320212 C27.0450285,9.6533511 27.1150538,9.36346041 27.1150538,9.03361825 L27.1150538,8.22400568 L24.956087,8.22400568 L24.956087,6.76970162 L28.7492718,6.76970162 L28.7492718,12.3470327 L27.2649821,12.3470327 L27.2649821,10.7577932 Z" id="Path"></path>
            <path d="M30.9843493,1.25234188 L32.6185673,1.25234188 L32.6185673,5.84014645 L32.6935314,5.84014645 C32.8634795,5.42034734 33.1183575,5.07051181 33.4581655,4.79064867 C33.8080275,4.51078554 34.2827709,4.37084956 34.8824839,4.37084956 C35.6821306,4.37084956 36.3017753,4.63571987 36.7415942,5.16546931 C37.191379,5.68521765 37.4162714,6.42986719 37.4162714,7.39940029 L37.4162714,12.3470327 L35.7820534,12.3470327 L35.7820534,7.59430702 C35.7820534,6.38488871 35.2923172,5.78017515 34.3127565,5.78017515 C34.102857,5.78017515 33.8929574,5.8101608 33.6830579,5.8701321 C33.4831241,5.92011112 33.3032102,6.00006698 33.1433162,6.1100173 C32.9834221,6.21996763 32.8534255,6.35989479 32.7535027,6.52981642 C32.6635457,6.69973804 32.6185673,6.89464477 32.6185673,7.1145366 L32.6185673,12.3470327 L30.9843493,12.3470327 L30.9843493,1.25234188 Z" id="Path"></path>
            <path d="M42.7398709,12.5269466 C42.1801976,12.5269466 41.6804073,12.4319626 41.2405884,12.2420829 C40.8008576,12.0522032 40.426037,11.7823323 40.1161265,11.4324703 C39.8063041,11.0726425 39.5664189,10.6428776 39.3964708,10.1430873 C39.2365768,9.63333127 39.1565856,9.06863091 39.1565856,8.44889806 C39.1565856,7.82919167 39.2365768,7.26946541 39.3964708,6.76970162 C39.5664189,6.25994556 39.8063041,5.83015417 40.1161265,5.48031864 C40.426037,5.12049083 40.8008576,4.84561943 41.2405884,4.65571324 C41.6804073,4.46580706 42.1801976,4.37084956 42.7398709,4.37084956 C43.3095983,4.37084956 43.8093885,4.47079879 44.2391534,4.67070607 C44.6789724,4.87061335 45.0438272,5.15047648 45.3336297,5.51030429 C45.6235204,5.86013982 45.8384469,6.26993784 45.9783212,6.73971597 C46.1282494,7.20949411 46.2032136,7.71424962 46.2032136,8.25399133 L46.2032136,8.86869717 L40.8507749,8.86869717 L40.8507749,9.1235752 C40.8507749,9.72328822 41.02575,10.2180515 41.3755238,10.6078649 C41.7353516,10.9877126 42.2451077,11.1775923 42.904792,11.1775923 C43.3845624,11.1775923 43.7893687,11.0726425 44.1192108,10.8627429 C44.449053,10.6528434 44.7289779,10.3679797 44.9588091,10.0081519 L45.9183499,10.9526999 C45.6285474,11.4324703 45.2087483,11.8172568 44.6589526,12.1071475 C44.109245,12.3869841 43.4695805,12.5269466 42.7398709,12.5269466 Z M42.7398709,5.64523972 C42.4600342,5.64523972 42.2001292,5.69521874 41.960244,5.79516797 C41.7304128,5.8951172 41.5304791,6.03505318 41.360531,6.21496708 C41.2006369,6.39488099 41.0756673,6.60978109 40.9857103,6.85965857 C40.8957534,7.10953606 40.8507749,7.38440746 40.8507749,7.68426397 L40.8507749,7.78921375 L44.4790386,7.78921375 L44.4790386,7.63928549 C44.4790386,7.03957248 44.3241716,6.55980207 44.0142611,6.19997426 C43.7044387,5.83015417 43.2796126,5.64523972 42.7398709,5.64523972 Z" id="Shape"></path>
            <path d="M48.0123184,12.3470327 L48.0123184,4.55076347 L49.6465364,4.55076347 L49.6465364,5.84014645 L49.7215005,5.84014645 C49.8914486,5.42034734 50.1463266,5.07051181 50.4861346,4.79064867 C50.8359966,4.51078554 51.31074,4.37084956 51.910453,4.37084956 C52.7100998,4.37084956 53.3297444,4.63571987 53.7695634,5.16546931 C54.2193481,5.68521765 54.4442405,6.42986719 54.4442405,7.39940029 L54.4442405,12.3470327 L52.8100225,12.3470327 L52.8100225,7.60929984 C52.8100225,6.38988044 52.3202863,5.78017515 51.3407257,5.78017515 C51.1308261,5.78017515 50.9209266,5.8101608 50.711027,5.8701321 C50.5110933,5.92011112 50.3311794,6.00006698 50.1712853,6.1100173 C50.0113912,6.21996763 49.8813946,6.35989479 49.7814718,6.52981642 C49.6915149,6.69973804 49.6465364,6.8996365 49.6465364,7.12952943 L49.6465364,12.3470327 L48.0123184,12.3470327 Z" id="Path"></path>
            <path d="M58.8682705,12.3470327 C58.2985431,12.3470327 57.8687782,12.2021314 57.5788875,11.9122407 C57.289085,11.6123842 57.1440956,11.1925851 57.1440956,10.6528434 L57.1440956,5.88512492 L55.9296767,5.88512492 L55.9296767,4.55076347 L56.5893611,4.55076347 C56.8592319,4.55076347 57.0441728,4.49079216 57.1440956,4.37084956 C57.2540724,4.25090696 57.3090167,4.05600023 57.3090167,3.78612937 L57.3090167,2.42178226 L58.7783136,2.42178226 L58.7783136,4.55076347 L60.4125315,4.55076347 L60.4125315,5.88512492 L58.7783136,5.88512492 L58.7783136,11.0126712 L60.2925889,11.0126712 L60.2925889,12.3470327 L58.8682705,12.3470327 Z" id="Path"></path>
            <path d="M67.4526332,1.88204055 L67.4526332,8.32895546 C67.4526332,9.21855916 67.6225812,9.8882093 67.9623892,10.3379941 C68.3021972,10.7877788 68.8819786,11.0126712 69.701557,11.0126712 C70.5211354,11.0126712 71.1009167,10.7877788 71.4407247,10.3379941 C71.7805327,9.8882093 71.9504808,9.21855916 71.9504808,8.32895546 L71.9504808,1.88204055 L73.6146844,1.88204055 L73.6146844,8.0590846 C73.6146844,8.8287457 73.5447473,9.49336883 73.4047848,10.0531304 C73.2648224,10.6128919 73.03993,11.0776695 72.7301077,11.4474631 C72.4202854,11.8072909 72.0154791,12.0771618 71.5156888,12.2570757 C71.0259526,12.4369896 70.4212126,12.5269466 69.701557,12.5269466 C68.9819013,12.5269466 68.3722225,12.4369896 67.8724323,12.2570757 C67.382696,12.0771618 66.9828286,11.8072909 66.6730062,11.4474631 C66.3631839,11.0776695 66.1382915,10.6128919 65.9983291,10.0531304 C65.8583667,9.49336883 65.7884295,8.8287457 65.7884295,8.0590846 L65.7884295,1.88204055 L67.4526332,1.88204055 Z" id="Path"></path>
            <path d="M76.0067456,12.3470327 L76.0067456,4.55076347 L77.6409635,4.55076347 L77.6409635,5.84014645 L77.7159277,5.84014645 C77.8858758,5.42034734 78.1407538,5.07051181 78.4805618,4.79064867 C78.8304238,4.51078554 79.3051672,4.37084956 79.9048802,4.37084956 C80.7045269,4.37084956 81.3241716,4.63571987 81.7639905,5.16546931 C82.2137753,5.68521765 82.4386677,6.42986719 82.4386677,7.39940029 L82.4386677,12.3470327 L80.8044497,12.3470327 L80.8044497,7.60929984 C80.8044497,6.38988044 80.3147135,5.78017515 79.3351528,5.78017515 C79.1252533,5.78017515 78.9153537,5.8101608 78.7054541,5.8701321 C78.5055204,5.92011112 78.3256065,6.00006698 78.1657124,6.1100173 C78.0058184,6.21996763 77.8758217,6.35989479 77.775899,6.52981642 C77.685942,6.69973804 77.6409635,6.8996365 77.6409635,7.12952943 L77.6409635,12.3470327 L76.0067456,12.3470327 Z" id="Path"></path>
            <path d="M85.5283362,3.15643071 C85.1885282,3.15643071 84.9386772,3.07646603 84.7786949,2.9165455 C84.6287667,2.75662497 84.5538026,2.55171714 84.5538026,2.30183966 L84.5538026,2.04696163 C84.5538026,1.79708415 84.6287667,1.59217632 84.7786949,1.43225579 C84.9386772,1.27233526 85.1885282,1.19237058 85.5283362,1.19237058 C85.8682324,1.19237058 86.1130564,1.27233526 86.2629846,1.43225579 C86.4129129,1.59217632 86.487877,1.79708415 86.487877,2.04696163 L86.487877,2.30183966 C86.487877,2.55171714 86.4129129,2.75662497 86.2629846,2.9165455 C86.1130564,3.07646603 85.8682324,3.15643071 85.5283362,3.15643071 Z M84.7037308,4.55076347 L86.3379488,4.55076347 L86.3379488,12.3470327 L84.7037308,12.3470327 L84.7037308,4.55076347 Z" id="Shape"></path>
            <polygon id="Path" points="90.3661682 12.3470327 87.7120853 4.55076347 89.3316632 4.55076347 90.5160964 8.10406308 91.3107162 10.8327573 91.4006731 10.8327573 92.1952929 8.10406308 93.4097117 4.55076347 94.9689656 4.55076347 92.2852498 12.3470327"></polygon>
            <path d="M99.2851354,12.5269466 C98.7251093,12.5269466 98.2259364,12.4319626 97.7858529,12.2420829 C97.3457694,12.0522032 96.9709487,11.7823323 96.661391,11.4324703 C96.3518332,11.0726425 96.111948,10.6428776 95.9417354,10.1430873 C95.7821059,9.63333127 95.7018501,9.06863091 95.7018501,8.44889806 C95.7018501,7.82919167 95.7821059,7.26946541 95.9417354,6.76970162 C96.111948,6.25994556 96.3518332,5.83015417 96.661391,5.48031864 C96.9709487,5.12049083 97.3457694,4.84561943 97.7858529,4.65571324 C98.2259364,4.46580706 98.7251093,4.37084956 99.2851354,4.37084956 C99.8548628,4.37084956 100.354918,4.47079879 100.784418,4.67070607 C101.224501,4.87061335 101.588739,5.15047648 101.878894,5.51030429 C102.169049,5.86013982 102.383359,6.26993784 102.523586,6.73971597 C102.673514,7.20949411 102.748478,7.71424962 102.748478,8.25399133 L102.748478,8.86869717 L97.3960394,8.86869717 L97.3960394,9.1235752 C97.3960394,9.72328822 97.5706617,10.2180515 97.9207883,10.6078649 C98.2806161,10.9877126 98.7903722,11.1775923 99.4500565,11.1775923 C99.9298269,11.1775923 100.334633,11.0726425 100.664475,10.8627429 C100.994318,10.6528434 101.27389,10.3679797 101.504074,10.0081519 L102.463614,10.9526999 C102.173459,11.4324703 101.75366,11.8172568 101.204217,12.1071475 C100.654774,12.3869841 100.014492,12.5269466 99.2851354,12.5269466 Z M99.2851354,5.64523972 C99.0055633,5.64523972 98.7453937,5.69521874 98.5055085,5.79516797 C98.2753245,5.8951172 98.0760081,6.03505318 97.9057955,6.21496708 C97.746166,6.39488099 97.6209318,6.60978109 97.5309748,6.85965857 C97.4410179,7.10953606 97.3960394,7.38440746 97.3960394,7.68426397 L97.3960394,7.78921375 L101.024303,7.78921375 L101.024303,7.63928549 C101.024303,7.03957248 100.869083,6.55980207 100.559526,6.19997426 C100.249968,5.83015417 99.8248771,5.64523972 99.2851354,5.64523972 Z" id="Shape"></path>
            <path d="M104.557318,12.3470327 L104.557318,4.55076347 L106.191536,4.55076347 L106.191536,6.050046 L106.2665,6.050046 C106.376742,5.65024027 106.606926,5.30040473 106.95617,5.00054823 C107.306297,4.70069172 107.791359,4.55076347 108.410474,4.55076347 L108.845266,4.55076347 L108.845266,6.12501013 L108.200575,6.12501013 C107.551474,6.12501013 107.051419,6.22995991 106.701292,6.43985946 C106.361749,6.64975902 106.191536,6.9596078 106.191536,7.36941464 L106.191536,12.3470327 L104.557318,12.3470327 Z" id="Path"></path>
            <path d="M112.770741,12.5269466 C112.030801,12.5269466 111.411685,12.3970381 110.911631,12.1371331 C110.411576,11.8772281 109.976784,11.5174003 109.607255,11.0576497 L110.656752,10.0981089 C110.946908,10.4479708 111.266167,10.7227805 111.616293,10.9227142 C111.976121,11.112594 112.390629,11.2075779 112.860698,11.2075779 C113.340468,11.2075779 113.695004,11.117621 113.925188,10.9377071 C114.165074,10.7478274 114.285016,10.4879223 114.285016,10.1580802 C114.285016,9.90822913 114.200351,9.69832958 114.030138,9.52838149 C113.870509,9.34846759 113.585645,9.23355199 113.175547,9.18354651 L112.455892,9.09358955 C111.65598,8.99366678 111.026282,8.7637474 110.566796,8.40391959 C110.117011,8.0340995 109.892118,7.48935724 109.892118,6.76970162 C109.892118,6.38988044 109.961791,6.05504655 110.102018,5.76518232 C110.242245,5.46532581 110.437152,5.21544833 110.686738,5.01554105 C110.946908,4.8056415 111.251174,4.64572097 111.6013,4.53577064 C111.961128,4.42582031 112.356233,4.37084956 112.785734,4.37084956 C113.485105,4.37084956 114.054832,4.48079989 114.494916,4.70069172 C114.944701,4.92058355 115.344215,5.22544061 115.694342,5.61525407 L114.689823,6.57479489 C114.489624,6.33490969 114.225045,6.13001068 113.895203,5.96008905 C113.575062,5.78017515 113.205533,5.69021819 112.785734,5.69021819 C112.335949,5.69021819 112.000815,5.78017515 111.781214,5.96008905 C111.571315,6.14000296 111.466365,6.37488761 111.466365,6.66475184 C111.466365,6.96460835 111.561614,7.18950073 111.751229,7.33942899 C111.940844,7.48935724 112.245992,7.59930757 112.665791,7.66927114 L113.385447,7.7592281 C114.245329,7.88916298 114.869736,8.14404101 115.25955,8.52386219 C115.659065,8.89365582 115.859263,9.39344606 115.859263,10.0231447 C115.859263,10.4029924 115.784299,10.7478274 115.634371,11.0576497 C115.494144,11.3575062 115.289536,11.6174112 115.019665,11.8372766 C114.749794,12.057142 114.425243,12.2270901 114.045131,12.3470327 C113.665019,12.4669753 113.24081,12.5269466 112.770741,12.5269466 Z" id="Path"></path>
            <path d="M118.52975,3.15643071 C118.190206,3.15643071 117.94062,3.07646603 117.780108,2.9165455 C117.63018,2.75662497 117.555216,2.55171714 117.555216,2.30183966 L117.555216,2.04696163 C117.555216,1.79708415 117.63018,1.59217632 117.780108,1.43225579 C117.94062,1.27233526 118.190206,1.19237058 118.52975,1.19237058 C118.870175,1.19237058 119.11447,1.27233526 119.264398,1.43225579 C119.414326,1.59217632 119.48929,1.79708415 119.48929,2.04696163 L119.48929,2.30183966 C119.48929,2.55171714 119.414326,2.75662497 119.264398,2.9165455 C119.11447,3.07646603 118.870175,3.15643071 118.52975,3.15643071 Z M117.705144,4.55076347 L119.339362,4.55076347 L119.339362,12.3470327 L117.705144,12.3470327 L117.705144,4.55076347 Z" id="Shape"></path>
            <path d="M123.831918,12.3470327 C123.262191,12.3470327 122.832691,12.2021314 122.542535,11.9122407 C122.253262,11.6123842 122.107743,11.1925851 122.107743,10.6528434 L122.107743,5.88512492 L120.893324,5.88512492 L120.893324,4.55076347 L121.553009,4.55076347 C121.82288,4.55076347 122.008085,4.49079216 122.107743,4.37084956 C122.217985,4.25090696 122.272664,4.05600023 122.272664,3.78612937 L122.272664,2.42178226 L123.741961,2.42178226 L123.741961,4.55076347 L125.376179,4.55076347 L125.376179,5.88512492 L123.741961,5.88512492 L123.741961,11.0126712 L125.256237,11.0126712 L125.256237,12.3470327 L123.831918,12.3470327 Z" id="Path"></path>
            <path d="M131.931572,4.55076347 L133.505818,4.55076347 L130.22239,13.8912937 C130.132433,14.1511987 130.027483,14.3710641 129.90754,14.550978 C129.798181,14.7408577 129.663245,14.890786 129.502734,15.0007628 C129.352806,15.1207054 129.168482,15.2056353 128.947999,15.2556408 C128.728399,15.3156121 128.468229,15.3455977 128.168373,15.3455977 L127.223825,15.3455977 L127.223825,14.0112363 L128.543193,14.0112363 L128.992978,12.6918676 L126.159334,4.55076347 L127.793552,4.55076347 L129.352806,9.13856803 L129.80259,10.8327573 L129.877555,10.8327573 L130.372318,9.13856803 L131.931572,4.55076347 Z" id="Path"></path>
            <polygon id="Path" points="138.513422 12.3470327 138.513422 1.88204055 140.207611 1.88204055 140.207611 10.8477501 144.465574 10.8477501 144.465574 12.3470327"></polygon>
            <path d="M146.904995,3.15643071 C146.565451,3.15643071 146.315865,3.07646603 146.155353,2.9165455 C146.005425,2.75662497 145.930461,2.55171714 145.930461,2.30183966 L145.930461,2.04696163 C145.930461,1.79708415 146.005425,1.59217632 146.155353,1.43225579 C146.315865,1.27233526 146.565451,1.19237058 146.904995,1.19237058 C147.24542,1.19237058 147.489715,1.27233526 147.639643,1.43225579 C147.789571,1.59217632 147.864535,1.79708415 147.864535,2.04696163 L147.864535,2.30183966 C147.864535,2.55171714 147.789571,2.75662497 147.639643,2.9165455 C147.489715,3.07646603 147.24542,3.15643071 146.904995,3.15643071 Z M146.080389,4.55076347 L147.714607,4.55076347 L147.714607,12.3470327 L146.080389,12.3470327 L146.080389,4.55076347 Z" id="Shape"></path>
            <path d="M150.048196,1.25234188 L151.682414,1.25234188 L151.682414,5.84014645 L151.757378,5.84014645 C151.927591,5.37036831 152.202754,5.0105405 152.581984,4.76066302 C152.971797,4.50078444 153.426874,4.37084956 153.946331,4.37084956 C154.935857,4.37084956 155.700491,4.73067737 156.240233,5.45033299 C156.779975,6.15999633 157.049846,7.15951508 157.049846,8.44889806 C157.049846,9.73828105 156.779975,10.7428003 156.240233,11.462456 C155.700491,12.1721458 154.935857,12.5269466 153.946331,12.5269466 C153.426874,12.5269466 152.971797,12.3970381 152.581984,12.1371331 C152.202754,11.8772281 151.927591,11.5174003 151.757378,11.0576497 L151.682414,11.0576497 L151.682414,12.3470327 L150.048196,12.3470327 L150.048196,1.25234188 Z M153.451568,11.117621 C154.021295,11.117621 154.476371,10.9377071 154.815915,10.5778793 C155.15634,10.2080856 155.325671,9.72328822 155.325671,9.1235752 L155.325671,7.77422092 C155.325671,7.17450791 155.15634,6.69473749 154.815915,6.33490969 C154.476371,5.9650896 154.021295,5.78017515 153.451568,5.78017515 C152.952395,5.78017515 152.532596,5.9051183 152.19217,6.15499578 C151.852627,6.39488099 151.682414,6.71473087 151.682414,7.1145366 L151.682414,9.78325952 C151.682414,10.1830388 151.852627,10.5079421 152.19217,10.7577932 C152.532596,10.9976784 152.952395,11.117621 153.451568,11.117621 Z" id="Shape"></path>
            <path d="M158.921303,12.3470327 L158.921303,4.55076347 L160.555521,4.55076347 L160.555521,6.050046 L160.630485,6.050046 C160.740727,5.65024027 160.970029,5.30040473 161.320155,5.00054823 C161.670282,4.70069172 162.154462,4.55076347 162.774459,4.55076347 L163.209251,4.55076347 L163.209251,6.12501013 L162.56456,6.12501013 C161.914577,6.12501013 161.415404,6.22995991 161.065277,6.43985946 C160.725734,6.64975902 160.555521,6.9596078 160.555521,7.36941464 L160.555521,12.3470327 L158.921303,12.3470327 Z" id="Path"></path>
            <path d="M170.255879,12.3470327 C169.826379,12.3470327 169.496537,12.2270901 169.266353,11.9872049 C169.036169,11.7373538 168.896824,11.4225045 168.846554,11.0426569 L168.771589,11.0426569 C168.621661,11.5323931 168.346499,11.9022749 167.946984,12.1521259 C167.547469,12.401977 167.062407,12.5269466 166.49268,12.5269466 C165.683067,12.5269466 165.05866,12.317047 164.618577,11.8972479 C164.189076,11.4774488 163.973885,10.9127484 163.973885,10.2030586 C163.973885,9.42343171 164.253457,8.83871152 164.813484,8.44889806 C165.383211,8.0590846 166.213108,7.86417787 167.302293,7.86417787 L168.711618,7.86417787 L168.711618,7.20449356 C168.711618,6.72472315 168.581974,6.35490306 168.321805,6.09502448 C168.061635,5.8351459 167.656829,5.70521102 167.107386,5.70521102 C166.6479,5.70521102 166.273079,5.80516025 165.982924,6.00506753 C165.692769,6.20497481 165.448474,6.45985284 165.248275,6.76970162 L164.273742,5.88512492 C164.533911,5.44533244 164.898149,5.08550463 165.368218,4.8056415 C165.838287,4.51577727 166.452993,4.37084956 167.212336,4.37084956 C168.222146,4.37084956 168.996482,4.60573422 169.536224,5.07551235 C170.075965,5.54529049 170.345836,6.21996763 170.345836,7.09954378 L170.345836,11.0126712 L171.170441,11.0126712 L171.170441,12.3470327 L170.255879,12.3470327 Z M166.957458,11.2825421 C167.467214,11.2825421 167.887013,11.1725653 168.216855,10.9526999 C168.546697,10.7227805 168.711618,10.4179852 168.711618,10.0381376 L168.711618,8.91367565 L167.332278,8.91367565 C166.202525,8.91367565 165.638089,9.26353764 165.638089,9.96317343 L165.638089,10.2330443 C165.638089,10.5829063 165.75274,10.8477501 165.982924,11.027664 C166.222809,11.1976121 166.54736,11.2825421 166.957458,11.2825421 Z" id="Shape"></path>
            <path d="M172.772028,12.3470327 L172.772028,4.55076347 L174.406246,4.55076347 L174.406246,6.050046 L174.48121,6.050046 C174.591451,5.65024027 174.820754,5.30040473 175.17088,5.00054823 C175.521007,4.70069172 176.005187,4.55076347 176.625184,4.55076347 L177.059976,4.55076347 L177.059976,6.12501013 L176.415285,6.12501013 C175.765302,6.12501013 175.266129,6.22995991 174.916002,6.43985946 C174.576459,6.64975902 174.406246,6.9596078 174.406246,7.36941464 L174.406246,12.3470327 L172.772028,12.3470327 Z" id="Path"></path>
            <path d="M183.425753,4.55076347 L185,4.55076347 L181.716571,13.8912937 C181.626614,14.1511987 181.521665,14.3710641 181.401722,14.550978 C181.291481,14.7408577 181.156545,14.890786 180.996916,15.0007628 C180.846987,15.1207054 180.661782,15.2056353 180.442181,15.2556408 C180.22258,15.3156121 179.962411,15.3455977 179.662554,15.3455977 L178.718006,15.3455977 L178.718006,14.0112363 L180.037375,14.0112363 L180.48716,12.6918676 L177.653516,4.55076347 L179.287734,4.55076347 L180.846987,9.13856803 L181.296772,10.8327573 L181.371736,10.8327573 L181.866499,9.13856803 L183.425753,4.55076347 Z" id="Path"></path>
        </g>
    </g>
</svg>