<svg width="36" height="36" viewBox="0 0 36 36" fill="none" xmlns="http://www.w3.org/2000/svg">
<g clip-path="url(#clip0_1866_1122)">
<mask id="mask0_1866_1122" style="mask-type:alpha" maskUnits="userSpaceOnUse" x="0" y="-1" width="36" height="37">
<path d="M17.7991 -0.000427246L0 6.30376V8.52069L17.7991 2.21818L35.5981 8.52069V6.30376L17.7991 -0.000427246ZM2.13823 9.68106L4.22623 11.7691H31.3702L33.4599 9.68106H2.13823ZM29.2822 27.4115H31.3702V13.8554H29.2822V27.4115ZM25.1062 27.4115H27.1942V13.8554H25.1062V27.4115ZM20.9319 27.4115H23.0199V13.8554H20.9319V27.4115ZM16.7542 27.4115H18.8422V13.8554H16.7542V27.4115ZM12.5782 27.4115H14.6662V13.8554H12.5782V27.4115ZM8.40391 27.4115H10.4919V13.8554H8.40391V27.4115ZM4.22623 27.4115H6.31423V13.8554H4.22623V27.4115ZM2.08967 31.5892H33.5101V29.5012H2.08967V31.5892ZM0 35.7668H35.5981V33.6772H0V35.7668Z" fill="white"/>
</mask>
<g mask="url(#mask0_1866_1122)">
<path d="M17.7991 -0.000427246L0 6.30376V8.52069L17.7991 2.21818L35.5981 8.52069V6.30376L17.7991 -0.000427246ZM2.13823 9.68106L4.22623 11.7691H31.3702L33.4599 9.68106H2.13823ZM29.2822 27.4115H31.3702V13.8554H29.2822V27.4115ZM25.1062 27.4115H27.1942V13.8554H25.1062V27.4115ZM20.9319 27.4115H23.0199V13.8554H20.9319V27.4115ZM16.7542 27.4115H18.8422V13.8554H16.7542V27.4115ZM12.5782 27.4115H14.6662V13.8554H12.5782V27.4115ZM8.40391 27.4115H10.4919V13.8554H8.40391V27.4115ZM4.22623 27.4115H6.31423V13.8554H4.22623V27.4115ZM2.08967 31.5892H33.5101V29.5012H2.08967V31.5892ZM0 35.7668H35.5981V33.6772H0V35.7668Z" fill="white"/>
</g>
</g>
<defs>
<clipPath id="clip0_1866_1122">
<rect width="36" height="36" fill="white"/>
</clipPath>
</defs>
</svg>
