<svg fill="none" height="36" viewBox="0 0 36 36" width="36" xmlns="http://www.w3.org/2000/svg" xmlns:xlink="http://www.w3.org/1999/xlink"><clipPath id="a"><path d="m0 0h36v36h-36z"/></clipPath><mask id="b" height="37" maskUnits="userSpaceOnUse" width="36" x="0" y="-1"><path d="m17.7991-.00042725-17.7991 6.30418725v2.21693l17.7991-6.30251 17.799 6.30251v-2.21693zm-15.66087 9.68148725 2.088 2.08804h27.14397l2.0897-2.08804zm27.14397 17.73044h2.088v-13.5561h-2.088zm-4.176 0h2.088v-13.5561h-2.088zm-4.1743 0h2.088v-13.5561h-2.088zm-4.1777 0h2.088v-13.5561h-2.088zm-4.176 0h2.088v-13.5561h-2.088zm-4.17429 0h2.08799v-13.5561h-2.08799zm-4.17768 0h2.088v-13.5561h-2.088zm-2.13656 4.1777h31.42043v-2.088h-31.42043zm-2.08967 4.1776h35.5981v-2.0896h-35.5981z" fill="#fff"/></mask><g clip-path="url(#a)"><g mask="url(#b)"><path d="m17.7991-.00042725-17.7991 6.30418725v2.21693l17.7991-6.30251 17.799 6.30251v-2.21693zm-15.66087 9.68148725 2.088 2.08804h27.14397l2.0897-2.08804zm27.14397 17.73044h2.088v-13.5561h-2.088zm-4.176 0h2.088v-13.5561h-2.088zm-4.1743 0h2.088v-13.5561h-2.088zm-4.1777 0h2.088v-13.5561h-2.088zm-4.176 0h2.088v-13.5561h-2.088zm-4.17429 0h2.08799v-13.5561h-2.08799zm-4.17768 0h2.088v-13.5561h-2.088zm-2.13656 4.1777h31.42043v-2.088h-31.42043zm-2.08967 4.1776h35.5981v-2.0896h-35.5981z" fill="#fff"/></g></g></svg>