<svg fill="none" height="24" viewBox="0 0 216 24" width="216" xmlns="http://www.w3.org/2000/svg"><g fill="#040606"><path d="m6.18018 4v2.29409h4.68002v13.70591h2.2941v-13.70591h4.68v-2.29409z"/><path d="m6.18018 20h2.2941v-11.41187h-2.2941z"/><path d="m15.54 20h2.2942v-11.41187h-2.2942z"/></g><path d="m34.3984 18.2734c2.9532 0 4.8672-1.8515 4.8672-4.7109v-1.3984h-4.625v1.414h2.8985v.25c-.0157 1.7344-1.2735 2.8985-3.1172 2.8985-2.1172 0-3.4453-1.6719-3.4453-4.3672v-.0156c0-2.6563 1.3203-4.3438 3.4062-4.3438 1.5469 0 2.625.75 3.0313 2.0859l.0234.0782h1.75l-.0156-.0782c-.4063-2.17965-2.2266-3.63278-4.7891-3.63278-3.1562 0-5.1953 2.32032-5.1953 5.89848v.0156c0 3.625 2.0156 5.9062 5.2109 5.9062zm7.1641-.2734h1.6953v-4.9766c0-1.3672.7734-2.2187 2.0156-2.2187s1.8282.6953 1.8282 2.1015v5.0938h1.6875v-5.4922c0-2.0234-1.0469-3.15624-2.9453-3.15624-1.2344 0-2.0469.54688-2.461 1.45314h-.125v-4.6172h-1.6953zm13.1563.1641c2.1718 0 3.3437-1.25 3.625-2.3672l.0156-.0703-1.6328.0078-.0313.0625c-.2031.4375-.8515.9765-1.9375.9765-1.3984 0-2.289-.9453-2.3203-2.5703h6.0156v-.5937c0-2.5469-1.4531-4.25784-3.8203-4.25784s-3.8984 1.77344-3.8984 4.42184v.0078c0 2.6876 1.5 4.3829 3.9844 4.3829zm-.0782-7.4219c1.1485 0 2 .7344 2.1328 2.25h-4.3125c.1485-1.461 1.0235-2.25 2.1797-2.25zm5.8282 7.2578h1.6953v-4.9766c0-1.3672.7734-2.2187 2.0156-2.2187s1.8281.6953 1.8281 2.1015v5.0938h1.6875v-5.4922c0-2.0234-1.0469-3.15624-2.9453-3.15624-1.2344 0-2.0469.54688-2.4609 1.45314h-.125v-1.28908h-1.6953zm12.7968.0547c.3282 0 .6406-.0391.9141-.0859v-1.3516c-.2344.0234-.3828.0312-.6406.0312-.836 0-1.1797-.375-1.1797-1.289v-4.5078h1.8203v-1.33598h-1.8203v-2.14062h-1.7266v2.14062h-1.3281v1.33598h1.3281v4.914c0 1.6328.7656 2.2891 2.6328 2.2891zm12.0156.2187c2.836 0 4.5626-1.6796 4.5626-4.1562v-7.39064h-1.75v7.25784c0 1.6328-1.0157 2.7422-2.8126 2.7422-1.7968 0-2.8203-1.1094-2.8203-2.7422v-7.25784h-1.75v7.39064c0 2.4766 1.7422 4.1562 4.5703 4.1562zm7.1876-.2734h1.6953v-4.9766c0-1.3672.7734-2.2187 2.0156-2.2187s1.8281.6953 1.8281 2.1015v5.0938h1.6875v-5.4922c0-2.0234-1.0469-3.15624-2.9453-3.15624-1.2344 0-2.0469.54688-2.4609 1.45314h-.125v-1.28908h-1.6953zm10.4762-10c.578 0 1.063-.47656 1.063-1.05469 0-.58593-.485-1.0625-1.063-1.0625-.586 0-1.062.47657-1.062 1.0625 0 .57813.476 1.05469 1.062 1.05469zm-.851 10h1.687v-8.48438h-1.687zm6.492 0h1.805l3.062-8.48438h-1.781l-2.11 6.76558h-.132l-2.118-6.76558h-1.796zm9.805.1641c2.171 0 3.343-1.25 3.625-2.3672l.015-.0703-1.633.0078-.031.0625c-.203.4375-.851.9765-1.937.9765-1.399 0-2.289-.9453-2.321-2.5703h6.016v-.5937c0-2.5469-1.453-4.25784-3.82-4.25784s-3.899 1.77344-3.899 4.42184v.0078c0 2.6876 1.5 4.3829 3.985 4.3829zm-.079-7.4219c1.149 0 2 .7344 2.133 2.25h-4.312c.148-1.461 1.023-2.25 2.179-2.25zm5.829 7.2578h1.695v-5.0703c0-1.2266.883-2.0235 2.18-2.0235.32 0 .609.0391.914.1016v-1.56249c-.172-.03906-.469-.07812-.742-.07812-1.133 0-1.922.53125-2.227 1.42971h-.125v-1.28128h-1.695zm9.32.1641c2.016 0 3.516-1.0703 3.516-2.6407v-.0156c0-1.2266-.782-1.9219-2.415-2.3047l-1.343-.3047c-.953-.2265-1.344-.5546-1.344-1.0859v-.0156c0-.6797.672-1.1407 1.602-1.1407.953 0 1.554.4454 1.718 1.0391v.0156h1.617v-.0078c-.148-1.3828-1.39-2.35154-3.328-2.35154-1.922 0-3.296 1.06254-3.296 2.53904v.0078c0 1.2422.742 1.9688 2.343 2.336l1.352.3125c.984.2265 1.383.5859 1.383 1.1172v.0156c0 .6953-.727 1.1719-1.774 1.1719-1.008 0-1.625-.4297-1.836-1.0704l-.008-.0078h-1.695v.0078c.164 1.4219 1.461 2.3829 3.508 2.3829zm6.422-10.1641c.578 0 1.062-.47656 1.062-1.05469 0-.58593-.484-1.0625-1.062-1.0625-.586 0-1.063.47657-1.063 1.0625 0 .57813.477 1.05469 1.063 1.05469zm-.852 10h1.688v-8.48438h-1.688zm7.36.0547c.328 0 .64-.0391.914-.0859v-1.3516c-.235.0234-.383.0312-.641.0312-.836 0-1.18-.375-1.18-1.289v-4.5078h1.821v-1.33598h-1.821v-2.14062h-1.726v2.14062h-1.328v1.33598h1.328v4.914c0 1.6328.765 2.2891 2.633 2.2891zm3.718 2.9297c1.719 0 2.579-.6328 3.297-2.6563l3.156-8.81248h-1.781l-2.117 6.78128h-.148l-2.125-6.78128h-1.829l3.079 8.49218-.125.4375c-.25.8594-.727 1.1953-1.516 1.1953-.195 0-.406-.0078-.57-.0312v1.3359c.218.0235.468.0391.679.0391zm12.743-2.9844h7.031v-1.5078h-5.281v-9.76564h-1.75zm9.937-10c.578 0 1.063-.47656 1.063-1.05469 0-.58593-.485-1.0625-1.063-1.0625-.586 0-1.062.47657-1.062 1.0625 0 .57813.476 1.05469 1.062 1.05469zm-.851 10h1.687v-8.48438h-1.687zm8.664.1406c2.14 0 3.515-1.7109 3.515-4.375v-.0156c0-2.6875-1.359-4.38281-3.515-4.38281-1.164 0-2.157.57812-2.61 1.49221h-.125v-4.6719h-1.695v11.8125h1.695v-1.3359h.125c.492.9297 1.422 1.4765 2.61 1.4765zm-.477-1.4453c-1.414 0-2.289-1.1172-2.289-2.9297v-.0156c0-1.8125.875-2.9297 2.289-2.9297s2.266 1.1094 2.266 2.9297v.0156c0 1.8203-.852 2.9297-2.266 2.9297zm6.016 1.3047h1.695v-5.0703c0-1.2266.883-2.0235 2.18-2.0235.32 0 .609.0391.914.1016v-1.56249c-.172-.03906-.469-.07812-.742-.07812-1.133 0-1.922.53125-2.227 1.42971h-.125v-1.28128h-1.695zm8.671.1406c1.126 0 2.016-.4844 2.516-1.3437h.133v1.2031h1.68v-5.8047c0-1.7812-1.203-2.84374-3.336-2.84374-1.93 0-3.266.92964-3.469 2.32034l-.008.0547h1.633l.008-.0313c.203-.6015.82-.9453 1.758-.9453 1.148 0 1.734.5156 1.734 1.4453v.75l-2.297.1328c-2.023.125-3.164 1.0078-3.164 2.5235v.0156c0 1.539 1.195 2.5234 2.812 2.5234zm-1.124-2.5937v-.0157c0-.7656.531-1.1874 1.703-1.2578l2.07-.1328v.7266c0 1.0937-.93 1.9219-2.195 1.9219-.914 0-1.578-.461-1.578-1.2422zm7.843 2.4531h1.696v-5.0703c0-1.2266.882-2.0235 2.179-2.0235.321 0 .61.0391.914.1016v-1.56249c-.172-.03906-.468-.07812-.742-.07812-1.133 0-1.922.53125-2.226 1.42971h-.125v-1.28128h-1.696zm7.281 2.9844c1.719 0 2.579-.6328 3.297-2.6563l3.157-8.81248h-1.782l-2.117 6.78128h-.148l-2.125-6.78128h-1.828l3.078 8.49218-.125.4375c-.25.8594-.727 1.1953-1.516 1.1953-.195 0-.406-.0078-.57-.0312v1.3359c.219.0235.469.0391.679.0391z" fill="#1a1a1a"/></svg>