<svg width="208" height="16" viewBox="0 0 208 16" fill="none" xmlns="http://www.w3.org/2000/svg">
<path d="M0 0V2.29409H4.68003V16H6.97408V2.29409H11.6541V0H0Z" fill="#040606"/>
<path d="M0 16H2.2941V4.58813H0V16Z" fill="#040606"/>
<path d="M9.36003 16H11.6542V4.58813H9.36003V16Z" fill="#040606"/>
<path d="M25.1013 2.134V9.444C25.1013 10.4527 25.294 11.212 25.6793 11.722C26.0646 12.232 26.722 12.487 27.6513 12.487C28.5806 12.487 29.238 12.232 29.6233 11.722C30.0086 11.212 30.2013 10.4527 30.2013 9.444V2.134H32.0883V9.138C32.0883 10.0107 32.009 10.7643 31.8503 11.399C31.6916 12.0337 31.4366 12.5607 31.0853 12.98C30.734 13.388 30.275 13.694 29.7083 13.898C29.153 14.102 28.4673 14.204 27.6513 14.204C26.8353 14.204 26.144 14.102 25.5773 13.898C25.022 13.694 24.5686 13.388 24.2173 12.98C23.866 12.5607 23.611 12.0337 23.4523 11.399C23.2936 10.7643 23.2143 10.0107 23.2143 9.138V2.134H25.1013Z" fill="#040606"/>
<path d="M34.8006 14V5.16H36.6536V6.622H36.7386C36.9313 6.146 37.2203 5.74933 37.6056 5.432C38.0023 5.11467 38.5406 4.956 39.2206 4.956C40.1273 4.956 40.8299 5.25633 41.3286 5.857C41.8386 6.44633 42.0936 7.29067 42.0936 8.39V14H40.2406V8.628C40.2406 7.24533 39.6853 6.554 38.5746 6.554C38.3366 6.554 38.0986 6.588 37.8606 6.656C37.6339 6.71267 37.4299 6.80333 37.2486 6.928C37.0673 7.05267 36.9199 7.21133 36.8066 7.404C36.7046 7.59667 36.6536 7.82333 36.6536 8.084V14H34.8006Z" fill="#040606"/>
<path d="M45.5969 3.579C45.2116 3.579 44.9283 3.48833 44.7469 3.307C44.5769 3.12567 44.4919 2.89333 44.4919 2.61V2.321C44.4919 2.03767 44.5769 1.80533 44.7469 1.624C44.9283 1.44267 45.2116 1.352 45.5969 1.352C45.9823 1.352 46.2599 1.44267 46.4299 1.624C46.5999 1.80533 46.6849 2.03767 46.6849 2.321V2.61C46.6849 2.89333 46.5999 3.12567 46.4299 3.307C46.2599 3.48833 45.9823 3.579 45.5969 3.579ZM44.6619 5.16H46.5149V14H44.6619V5.16Z" fill="#040606"/>
<path d="M51.082 14L48.073 5.16H49.909L51.252 9.189L52.153 12.283H52.255L53.156 9.189L54.533 5.16H56.301L53.258 14H51.082Z" fill="#040606"/>
<path d="M61.1954 14.204C60.5607 14.204 59.994 14.0963 59.4954 13.881C58.9967 13.6657 58.5717 13.3597 58.2204 12.963C57.869 12.555 57.597 12.0677 57.4044 11.501C57.223 10.923 57.1324 10.2827 57.1324 9.58C57.1324 8.87733 57.223 8.24267 57.4044 7.676C57.597 7.098 57.869 6.61067 58.2204 6.214C58.5717 5.806 58.9967 5.49433 59.4954 5.279C59.994 5.06367 60.5607 4.956 61.1954 4.956C61.8414 4.956 62.408 5.06933 62.8954 5.296C63.394 5.52267 63.8077 5.84 64.1364 6.248C64.465 6.64467 64.7087 7.10933 64.8674 7.642C65.0374 8.17467 65.1224 8.747 65.1224 9.359V10.056H59.0534V10.345C59.0534 11.025 59.2517 11.586 59.6484 12.028C60.0564 12.4587 60.6344 12.674 61.3824 12.674C61.9264 12.674 62.3854 12.555 62.7594 12.317C63.1334 12.079 63.4507 11.756 63.7114 11.348L64.7994 12.419C64.4707 12.963 63.9947 13.3993 63.3714 13.728C62.748 14.0453 62.0227 14.204 61.1954 14.204ZM61.1954 6.401C60.878 6.401 60.5834 6.45767 60.3114 6.571C60.0507 6.68433 59.824 6.843 59.6314 7.047C59.45 7.251 59.3084 7.49467 59.2064 7.778C59.1044 8.06133 59.0534 8.373 59.0534 8.713V8.832H63.1674V8.662C63.1674 7.982 62.9917 7.438 62.6404 7.03C62.289 6.61067 61.8074 6.401 61.1954 6.401Z" fill="#040606"/>
<path d="M67.1737 14V5.16H69.0267V6.86H69.1117C69.2363 6.40667 69.497 6.01 69.8937 5.67C70.2903 5.33 70.84 5.16 71.5427 5.16H72.0357V6.945H71.3047C70.568 6.945 70.0013 7.064 69.6047 7.302C69.2193 7.54 69.0267 7.89133 69.0267 8.356V14H67.1737Z" fill="#040606"/>
<path d="M76.4865 14.204C75.6478 14.204 74.9451 14.0567 74.3785 13.762C73.8118 13.4673 73.3188 13.0593 72.8995 12.538L74.0895 11.45C74.4181 11.8467 74.7808 12.1583 75.1775 12.385C75.5855 12.6003 76.0558 12.708 76.5885 12.708C77.1325 12.708 77.5348 12.606 77.7955 12.402C78.0675 12.1867 78.2035 11.892 78.2035 11.518C78.2035 11.2347 78.1071 10.9967 77.9145 10.804C77.7331 10.6 77.4101 10.4697 76.9455 10.413L76.1295 10.311C75.2228 10.1977 74.5088 9.937 73.9875 9.529C73.4775 9.10967 73.2225 8.492 73.2225 7.676C73.2225 7.24533 73.3018 6.86567 73.4605 6.537C73.6191 6.197 73.8401 5.91367 74.1235 5.687C74.4181 5.449 74.7638 5.26767 75.1605 5.143C75.5685 5.01833 76.0161 4.956 76.5035 4.956C77.2968 4.956 77.9428 5.08067 78.4415 5.33C78.9515 5.57933 79.4048 5.925 79.8015 6.367L78.6625 7.455C78.4358 7.183 78.1355 6.95067 77.7615 6.758C77.3988 6.554 76.9795 6.452 76.5035 6.452C75.9935 6.452 75.6138 6.554 75.3645 6.758C75.1265 6.962 75.0075 7.22833 75.0075 7.557C75.0075 7.897 75.1151 8.152 75.3305 8.322C75.5458 8.492 75.8915 8.61667 76.3675 8.696L77.1835 8.798C78.1581 8.94533 78.8665 9.23433 79.3085 9.665C79.7618 10.0843 79.9885 10.651 79.9885 11.365C79.9885 11.7957 79.9035 12.1867 79.7335 12.538C79.5748 12.878 79.3425 13.1727 79.0365 13.422C78.7305 13.6713 78.3621 13.864 77.9315 14C77.5008 14.136 77.0191 14.204 76.4865 14.204Z" fill="#040606"/>
<path d="M83.0169 3.579C82.6315 3.579 82.3482 3.48833 82.1669 3.307C81.9969 3.12567 81.9119 2.89333 81.9119 2.61V2.321C81.9119 2.03767 81.9969 1.80533 82.1669 1.624C82.3482 1.44267 82.6315 1.352 83.0169 1.352C83.4022 1.352 83.6799 1.44267 83.8499 1.624C84.0199 1.80533 84.1049 2.03767 84.1049 2.321V2.61C84.1049 2.89333 84.0199 3.12567 83.8499 3.307C83.6799 3.48833 83.4022 3.579 83.0169 3.579ZM82.0819 5.16H83.9349V14H82.0819V5.16Z" fill="#040606"/>
<path d="M89.0289 14C88.3829 14 87.8955 13.8357 87.5669 13.507C87.2382 13.167 87.0739 12.691 87.0739 12.079V6.673H85.6969V5.16H86.4449C86.7509 5.16 86.9605 5.092 87.0739 4.956C87.1985 4.82 87.2609 4.599 87.2609 4.293V2.746H88.9269V5.16H90.7799V6.673H88.9269V12.487H90.6439V14H89.0289Z" fill="#040606"/>
<path d="M96.1915 14.204C95.5568 14.204 94.9901 14.0963 94.4915 13.881C93.9928 13.6657 93.5678 13.3597 93.2165 12.963C92.8651 12.555 92.5931 12.0677 92.4005 11.501C92.2191 10.923 92.1285 10.2827 92.1285 9.58C92.1285 8.87733 92.2191 8.24267 92.4005 7.676C92.5931 7.098 92.8651 6.61067 93.2165 6.214C93.5678 5.806 93.9928 5.49433 94.4915 5.279C94.9901 5.06367 95.5568 4.956 96.1915 4.956C96.8375 4.956 97.4041 5.06933 97.8915 5.296C98.3901 5.52267 98.8038 5.84 99.1325 6.248C99.4611 6.64467 99.7048 7.10933 99.8635 7.642C100.033 8.17467 100.118 8.747 100.118 9.359V10.056H94.0495V10.345C94.0495 11.025 94.2478 11.586 94.6445 12.028C95.0525 12.4587 95.6305 12.674 96.3785 12.674C96.9225 12.674 97.3815 12.555 97.7555 12.317C98.1295 12.079 98.4468 11.756 98.7075 11.348L99.7955 12.419C99.4668 12.963 98.9908 13.3993 98.3675 13.728C97.7441 14.0453 97.0188 14.204 96.1915 14.204ZM96.1915 6.401C95.8741 6.401 95.5795 6.45767 95.3075 6.571C95.0468 6.68433 94.8201 6.843 94.6275 7.047C94.4461 7.251 94.3045 7.49467 94.2025 7.778C94.1005 8.06133 94.0495 8.373 94.0495 8.713V8.832H98.1635V8.662C98.1635 7.982 97.9878 7.438 97.6365 7.03C97.2851 6.61067 96.8035 6.401 96.1915 6.401Z" fill="#040606"/>
<path d="M103.105 3.579C102.719 3.579 102.436 3.48833 102.255 3.307C102.085 3.12567 102 2.89333 102 2.61V2.321C102 2.03767 102.085 1.80533 102.255 1.624C102.436 1.44267 102.719 1.352 103.105 1.352C103.49 1.352 103.768 1.44267 103.938 1.624C104.108 1.80533 104.193 2.03767 104.193 2.321V2.61C104.193 2.89333 104.108 3.12567 103.938 3.307C103.768 3.48833 103.49 3.579 103.105 3.579ZM102.17 5.16H104.023V14H102.17V5.16Z" fill="#040606"/>
<path d="M109.117 14C108.471 14 107.983 13.8357 107.655 13.507C107.326 13.167 107.162 12.691 107.162 12.079V6.673H105.785V5.16H106.533C106.839 5.16 107.048 5.092 107.162 4.956C107.286 4.82 107.349 4.599 107.349 4.293V2.746H109.015V5.16H110.868V6.673H109.015V12.487H110.732V14H109.117Z" fill="#040606"/>
<path d="M115.683 14.204C114.844 14.204 114.141 14.0567 113.575 13.762C113.008 13.4673 112.515 13.0593 112.096 12.538L113.286 11.45C113.614 11.8467 113.977 12.1583 114.374 12.385C114.782 12.6003 115.252 12.708 115.785 12.708C116.329 12.708 116.731 12.606 116.992 12.402C117.264 12.1867 117.4 11.892 117.4 11.518C117.4 11.2347 117.303 10.9967 117.111 10.804C116.929 10.6 116.606 10.4697 116.142 10.413L115.326 10.311C114.419 10.1977 113.705 9.937 113.184 9.529C112.674 9.10967 112.419 8.492 112.419 7.676C112.419 7.24533 112.498 6.86567 112.657 6.537C112.815 6.197 113.036 5.91367 113.32 5.687C113.614 5.449 113.96 5.26767 114.357 5.143C114.765 5.01833 115.212 4.956 115.7 4.956C116.493 4.956 117.139 5.08067 117.638 5.33C118.148 5.57933 118.601 5.925 118.998 6.367L117.859 7.455C117.632 7.183 117.332 6.95067 116.958 6.758C116.595 6.554 116.176 6.452 115.7 6.452C115.19 6.452 114.81 6.554 114.561 6.758C114.323 6.962 114.204 7.22833 114.204 7.557C114.204 7.897 114.311 8.152 114.527 8.322C114.742 8.492 115.088 8.61667 115.564 8.696L116.38 8.798C117.354 8.94533 118.063 9.23433 118.505 9.665C118.958 10.0843 119.185 10.651 119.185 11.365C119.185 11.7957 119.1 12.1867 118.93 12.538C118.771 12.878 118.539 13.1727 118.233 13.422C117.927 13.6713 117.558 13.864 117.128 14C116.697 14.136 116.215 14.204 115.683 14.204Z" fill="#040606"/>
<path d="M121.278 1.42H123.131V6.622H123.216C123.409 6.08933 123.72 5.68133 124.151 5.398C124.593 5.10333 125.109 4.956 125.698 4.956C126.82 4.956 127.687 5.364 128.299 6.18C128.911 6.98467 129.217 8.118 129.217 9.58C129.217 11.042 128.911 12.181 128.299 12.997C127.687 13.8017 126.82 14.204 125.698 14.204C125.109 14.204 124.593 14.0567 124.151 13.762C123.72 13.4673 123.409 13.0593 123.216 12.538H123.131V14H121.278V1.42ZM125.137 12.606C125.783 12.606 126.299 12.402 126.684 11.994C127.069 11.5747 127.262 11.025 127.262 10.345V8.815C127.262 8.135 127.069 7.591 126.684 7.183C126.299 6.76367 125.783 6.554 125.137 6.554C124.57 6.554 124.094 6.69567 123.709 6.979C123.324 7.251 123.131 7.61367 123.131 8.067V11.093C123.131 11.5463 123.324 11.9147 123.709 12.198C124.094 12.47 124.57 12.606 125.137 12.606Z" fill="#040606"/>
<path d="M132.274 3.579C131.888 3.579 131.605 3.48833 131.424 3.307C131.254 3.12567 131.169 2.89333 131.169 2.61V2.321C131.169 2.03767 131.254 1.80533 131.424 1.624C131.605 1.44267 131.888 1.352 132.274 1.352C132.659 1.352 132.937 1.44267 133.107 1.624C133.277 1.80533 133.362 2.03767 133.362 2.321V2.61C133.362 2.89333 133.277 3.12567 133.107 3.307C132.937 3.48833 132.659 3.579 132.274 3.579ZM131.339 5.16H133.192V14H131.339V5.16Z" fill="#040606"/>
<path d="M135.838 1.42H137.691V6.622H137.776C137.968 6.08933 138.28 5.68133 138.711 5.398C139.153 5.10333 139.668 4.956 140.258 4.956C141.38 4.956 142.247 5.364 142.859 6.18C143.471 6.98467 143.777 8.118 143.777 9.58C143.777 11.042 143.471 12.181 142.859 12.997C142.247 13.8017 141.38 14.204 140.258 14.204C139.668 14.204 139.153 14.0567 138.711 13.762C138.28 13.4673 137.968 13.0593 137.776 12.538H137.691V14H135.838V1.42ZM139.697 12.606C140.343 12.606 140.858 12.402 141.244 11.994C141.629 11.5747 141.822 11.025 141.822 10.345V8.815C141.822 8.135 141.629 7.591 141.244 7.183C140.858 6.76367 140.343 6.554 139.697 6.554C139.13 6.554 138.654 6.69567 138.269 6.979C137.883 7.251 137.691 7.61367 137.691 8.067V11.093C137.691 11.5463 137.883 11.9147 138.269 12.198C138.654 12.47 139.13 12.606 139.697 12.606Z" fill="#040606"/>
<path d="M147.785 14C147.151 14 146.675 13.8413 146.357 13.524C146.051 13.1953 145.898 12.742 145.898 12.164V1.42H147.751V12.487H148.975V14H147.785Z" fill="#040606"/>
<path d="M151.681 3.579C151.296 3.579 151.012 3.48833 150.831 3.307C150.661 3.12567 150.576 2.89333 150.576 2.61V2.321C150.576 2.03767 150.661 1.80533 150.831 1.624C151.012 1.44267 151.296 1.352 151.681 1.352C152.066 1.352 152.344 1.44267 152.514 1.624C152.684 1.80533 152.769 2.03767 152.769 2.321V2.61C152.769 2.89333 152.684 3.12567 152.514 3.307C152.344 3.48833 152.066 3.579 151.681 3.579ZM150.746 5.16H152.599V14H150.746V5.16Z" fill="#040606"/>
<path d="M158.713 14.204C158.101 14.204 157.54 14.0963 157.03 13.881C156.531 13.6657 156.106 13.3597 155.755 12.963C155.404 12.555 155.132 12.0677 154.939 11.501C154.746 10.923 154.65 10.2827 154.65 9.58C154.65 8.87733 154.746 8.24267 154.939 7.676C155.132 7.098 155.404 6.61067 155.755 6.214C156.106 5.806 156.531 5.49433 157.03 5.279C157.54 5.06367 158.101 4.956 158.713 4.956C159.325 4.956 159.88 5.06367 160.379 5.279C160.889 5.49433 161.32 5.806 161.671 6.214C162.022 6.61067 162.294 7.098 162.487 7.676C162.68 8.24267 162.776 8.87733 162.776 9.58C162.776 10.2827 162.68 10.923 162.487 11.501C162.294 12.0677 162.022 12.555 161.671 12.963C161.32 13.3597 160.889 13.6657 160.379 13.881C159.88 14.0963 159.325 14.204 158.713 14.204ZM158.713 12.674C159.348 12.674 159.858 12.4813 160.243 12.096C160.628 11.6993 160.821 11.11 160.821 10.328V8.832C160.821 8.05 160.628 7.46633 160.243 7.081C159.858 6.68433 159.348 6.486 158.713 6.486C158.078 6.486 157.568 6.68433 157.183 7.081C156.798 7.46633 156.605 8.05 156.605 8.832V10.328C156.605 11.11 156.798 11.6993 157.183 12.096C157.568 12.4813 158.078 12.674 158.713 12.674Z" fill="#040606"/>
<path d="M167.239 14C166.593 14 166.106 13.8357 165.777 13.507C165.448 13.167 165.284 12.691 165.284 12.079V6.673H163.907V5.16H164.655C164.961 5.16 165.171 5.092 165.284 4.956C165.409 4.82 165.471 4.599 165.471 4.293V2.746H167.137V5.16H168.99V6.673H167.137V12.487H168.854V14H167.239Z" fill="#040606"/>
<path d="M171 1.42H172.853V6.622H172.938C173.131 6.146 173.419 5.74933 173.805 5.432C174.201 5.11467 174.74 4.956 175.42 4.956C176.326 4.956 177.029 5.25633 177.528 5.857C178.038 6.44633 178.293 7.29067 178.293 8.39V14H176.44V8.611C176.44 7.23967 175.885 6.554 174.774 6.554C174.536 6.554 174.298 6.588 174.06 6.656C173.833 6.71267 173.629 6.80333 173.448 6.928C173.266 7.05267 173.119 7.21133 173.006 7.404C172.904 7.59667 172.853 7.81767 172.853 8.067V14H171V1.42Z" fill="#040606"/>
<path d="M184.329 14.204C183.694 14.204 183.128 14.0963 182.629 13.881C182.13 13.6657 181.705 13.3597 181.354 12.963C181.003 12.555 180.731 12.0677 180.538 11.501C180.357 10.923 180.266 10.2827 180.266 9.58C180.266 8.87733 180.357 8.24267 180.538 7.676C180.731 7.098 181.003 6.61067 181.354 6.214C181.705 5.806 182.13 5.49433 182.629 5.279C183.128 5.06367 183.694 4.956 184.329 4.956C184.975 4.956 185.542 5.06933 186.029 5.296C186.528 5.52267 186.941 5.84 187.27 6.248C187.599 6.64467 187.842 7.10933 188.001 7.642C188.171 8.17467 188.256 8.747 188.256 9.359V10.056H182.187V10.345C182.187 11.025 182.385 11.586 182.782 12.028C183.19 12.4587 183.768 12.674 184.516 12.674C185.06 12.674 185.519 12.555 185.893 12.317C186.267 12.079 186.584 11.756 186.845 11.348L187.933 12.419C187.604 12.963 187.128 13.3993 186.505 13.728C185.882 14.0453 185.156 14.204 184.329 14.204ZM184.329 6.401C184.012 6.401 183.717 6.45767 183.445 6.571C183.184 6.68433 182.958 6.843 182.765 7.047C182.584 7.251 182.442 7.49467 182.34 7.778C182.238 8.06133 182.187 8.373 182.187 8.713V8.832H186.301V8.662C186.301 7.982 186.125 7.438 185.774 7.03C185.423 6.61067 184.941 6.401 184.329 6.401Z" fill="#040606"/>
<path d="M193.775 14.204C193.141 14.204 192.574 14.0963 192.075 13.881C191.577 13.6657 191.152 13.3597 190.8 12.963C190.449 12.555 190.177 12.0677 189.984 11.501C189.803 10.923 189.712 10.2827 189.712 9.58C189.712 8.87733 189.803 8.24267 189.984 7.676C190.177 7.098 190.449 6.61067 190.8 6.214C191.152 5.806 191.577 5.49433 192.075 5.279C192.574 5.06367 193.141 4.956 193.775 4.956C194.421 4.956 194.988 5.06933 195.475 5.296C195.974 5.52267 196.388 5.84 196.716 6.248C197.045 6.64467 197.289 7.10933 197.447 7.642C197.617 8.17467 197.702 8.747 197.702 9.359V10.056H191.633V10.345C191.633 11.025 191.832 11.586 192.228 12.028C192.636 12.4587 193.214 12.674 193.962 12.674C194.506 12.674 194.965 12.555 195.339 12.317C195.713 12.079 196.031 11.756 196.291 11.348L197.379 12.419C197.051 12.963 196.575 13.3993 195.951 13.728C195.328 14.0453 194.603 14.204 193.775 14.204ZM193.775 6.401C193.458 6.401 193.163 6.45767 192.891 6.571C192.631 6.68433 192.404 6.843 192.211 7.047C192.03 7.251 191.888 7.49467 191.786 7.778C191.684 8.06133 191.633 8.373 191.633 8.713V8.832H195.747V8.662C195.747 7.982 195.572 7.438 195.22 7.03C194.869 6.61067 194.387 6.401 193.775 6.401Z" fill="#040606"/>
<path d="M199.754 1.42H201.607V9.138H201.692L202.916 7.557L205.041 5.16H207.2L204.106 8.577L207.574 14H205.364L202.831 9.784L201.607 11.11V14H199.754V1.42Z" fill="#040606"/>
</svg>
