<svg width="204" height="24" viewBox="0 0 204 24" fill="none" xmlns="http://www.w3.org/2000/svg">
<path d="M13.001 21V23H11.001V21H3.00098C2.73576 21 2.48141 20.8947 2.29387 20.7071C2.10633 20.5196 2.00098 20.2652 2.00098 20V4C2.00098 3.73479 2.10633 3.48043 2.29387 3.2929C2.48141 3.10536 2.73576 3 3.00098 3H9.00098C9.56856 2.99933 10.1298 3.11976 10.6471 3.35325C11.1644 3.58674 11.626 3.92792 12.001 4.354C12.376 3.92792 12.8375 3.58674 13.3549 3.35325C13.8722 3.11976 14.4334 2.99933 15.001 3H21.001C21.2662 3 21.5205 3.10536 21.7081 3.2929C21.8956 3.48043 22.001 3.73479 22.001 4V20C22.001 20.2652 21.8956 20.5196 21.7081 20.7071C21.5205 20.8947 21.2662 21 21.001 21H13.001ZM20.001 19V5H15.001C14.4705 5 13.9618 5.21072 13.5868 5.58579C13.2117 5.96086 13.001 6.46957 13.001 7V19H20.001ZM11.001 19V7C11.001 6.46957 10.7903 5.96086 10.4152 5.58579C10.0401 5.21072 9.53141 5 9.00098 5H4.00098V19H11.001Z" fill="#1E64C8"/>
<path d="M38.0195 17.7563C40.6782 17.7563 42.2969 16.1816 42.2969 13.8599V6.93115H40.6562V13.7354C40.6562 15.2661 39.7041 16.3062 38.0195 16.3062C36.335 16.3062 35.3755 15.2661 35.3755 13.7354V6.93115H33.7349V13.8599C33.7349 16.1816 35.3682 17.7563 38.0195 17.7563ZM44.7578 17.5H46.3472V12.8345C46.3472 11.5527 47.0723 10.7544 48.2368 10.7544C49.4014 10.7544 49.9507 11.4062 49.9507 12.7246V17.5H51.5327V12.3511C51.5327 10.4541 50.5513 9.39209 48.7715 9.39209C47.6143 9.39209 46.8525 9.90479 46.4644 10.7544H46.3472V9.5459H44.7578V17.5ZM54.5796 8.125C55.1216 8.125 55.5757 7.67822 55.5757 7.13623C55.5757 6.58691 55.1216 6.14014 54.5796 6.14014C54.0303 6.14014 53.5835 6.58691 53.5835 7.13623C53.5835 7.67822 54.0303 8.125 54.5796 8.125ZM53.7812 17.5H55.3633V9.5459H53.7812V17.5ZM59.8677 17.5H61.5596L64.4307 9.5459H62.7607L60.7832 15.8887H60.6587L58.6738 9.5459H56.9893L59.8677 17.5ZM69.0596 17.6538C71.0957 17.6538 72.1943 16.4819 72.458 15.4346L72.4727 15.3687L70.9419 15.376L70.9126 15.4346C70.7222 15.8447 70.1143 16.3501 69.0962 16.3501C67.7852 16.3501 66.9502 15.4639 66.9209 13.9404H72.5605V13.3838C72.5605 10.9961 71.1982 9.39209 68.979 9.39209C66.7598 9.39209 65.3242 11.0547 65.3242 13.5376V13.5449C65.3242 16.0645 66.7305 17.6538 69.0596 17.6538ZM68.9863 10.6958C70.063 10.6958 70.8613 11.3843 70.9858 12.8052H66.9429C67.082 11.4355 67.9023 10.6958 68.9863 10.6958ZM74.4502 17.5H76.0396V12.7466C76.0396 11.5967 76.8672 10.8496 78.083 10.8496C78.3833 10.8496 78.6543 10.8862 78.9399 10.9448V9.47998C78.7788 9.44336 78.5005 9.40674 78.2441 9.40674C77.1821 9.40674 76.4424 9.90479 76.1567 10.7471H76.0396V9.5459H74.4502V17.5ZM83.188 17.6538C85.0776 17.6538 86.4839 16.6504 86.4839 15.1782V15.1636C86.4839 14.0137 85.7515 13.3618 84.2207 13.0029L82.9609 12.7173C82.0674 12.5049 81.7012 12.1973 81.7012 11.6992V11.6846C81.7012 11.0474 82.3311 10.6152 83.2026 10.6152C84.0962 10.6152 84.6602 11.0327 84.814 11.5894V11.604H86.3301V11.5967C86.1909 10.3003 85.0264 9.39209 83.21 9.39209C81.4082 9.39209 80.1191 10.3882 80.1191 11.7725V11.7798C80.1191 12.9443 80.8149 13.6255 82.3164 13.9697L83.5835 14.2627C84.5063 14.4751 84.8799 14.812 84.8799 15.3101V15.3247C84.8799 15.9766 84.1987 16.4233 83.2173 16.4233C82.2725 16.4233 81.6938 16.0205 81.4961 15.4199L81.4888 15.4126H79.8994V15.4199C80.0532 16.7529 81.269 17.6538 83.188 17.6538ZM89.2085 8.125C89.7505 8.125 90.2046 7.67822 90.2046 7.13623C90.2046 6.58691 89.7505 6.14014 89.2085 6.14014C88.6592 6.14014 88.2124 6.58691 88.2124 7.13623C88.2124 7.67822 88.6592 8.125 89.2085 8.125ZM88.4102 17.5H89.9922V9.5459H88.4102V17.5ZM95.3096 17.5513C95.6172 17.5513 95.9102 17.5146 96.1665 17.4707V16.2036C95.9468 16.2256 95.8076 16.2329 95.5659 16.2329C94.7822 16.2329 94.46 15.8813 94.46 15.0244V10.7983H96.1665V9.5459H94.46V7.53906H92.8413V9.5459H91.5962V10.7983H92.8413V15.4053C92.8413 16.936 93.5591 17.5513 95.3096 17.5513ZM101.271 17.6538C103.308 17.6538 104.406 16.4819 104.67 15.4346L104.685 15.3687L103.154 15.376L103.125 15.4346C102.934 15.8447 102.326 16.3501 101.308 16.3501C99.9971 16.3501 99.1621 15.4639 99.1328 13.9404H104.772V13.3838C104.772 10.9961 103.41 9.39209 101.191 9.39209C98.9717 9.39209 97.5361 11.0547 97.5361 13.5376V13.5449C97.5361 16.0645 98.9424 17.6538 101.271 17.6538ZM101.198 10.6958C102.275 10.6958 103.073 11.3843 103.198 12.8052H99.1548C99.2939 11.4355 100.114 10.6958 101.198 10.6958ZM107.49 8.125C108.032 8.125 108.486 7.67822 108.486 7.13623C108.486 6.58691 108.032 6.14014 107.49 6.14014C106.94 6.14014 106.494 6.58691 106.494 7.13623C106.494 7.67822 106.94 8.125 107.49 8.125ZM106.691 17.5H108.273V9.5459H106.691V17.5ZM113.591 17.5513C113.898 17.5513 114.191 17.5146 114.448 17.4707V16.2036C114.228 16.2256 114.089 16.2329 113.847 16.2329C113.063 16.2329 112.741 15.8813 112.741 15.0244V10.7983H114.448V9.5459H112.741V7.53906H111.123V9.5459H109.877V10.7983H111.123V15.4053C111.123 16.936 111.84 17.5513 113.591 17.5513ZM119.077 17.6538C120.966 17.6538 122.373 16.6504 122.373 15.1782V15.1636C122.373 14.0137 121.64 13.3618 120.109 13.0029L118.85 12.7173C117.956 12.5049 117.59 12.1973 117.59 11.6992V11.6846C117.59 11.0474 118.22 10.6152 119.091 10.6152C119.985 10.6152 120.549 11.0327 120.703 11.5894V11.604H122.219V11.5967C122.08 10.3003 120.915 9.39209 119.099 9.39209C117.297 9.39209 116.008 10.3882 116.008 11.7725V11.7798C116.008 12.9443 116.704 13.6255 118.205 13.9697L119.472 14.2627C120.395 14.4751 120.769 14.812 120.769 15.3101V15.3247C120.769 15.9766 120.087 16.4233 119.106 16.4233C118.161 16.4233 117.583 16.0205 117.385 15.4199L117.377 15.4126H115.788V15.4199C115.942 16.7529 117.158 17.6538 119.077 17.6538ZM128.496 17.6318C130.502 17.6318 131.792 16.0278 131.792 13.5303V13.5156C131.792 10.9961 130.517 9.40674 128.496 9.40674C127.404 9.40674 126.474 9.94873 126.049 10.8057H125.932V6.42578H124.343V17.5H125.932V16.2476H126.049C126.511 17.1191 127.382 17.6318 128.496 17.6318ZM128.049 16.2769C126.723 16.2769 125.903 15.2295 125.903 13.5303V13.5156C125.903 11.8164 126.723 10.769 128.049 10.769C129.375 10.769 130.173 11.8091 130.173 13.5156V13.5303C130.173 15.2368 129.375 16.2769 128.049 16.2769ZM134.516 8.125C135.058 8.125 135.512 7.67822 135.512 7.13623C135.512 6.58691 135.058 6.14014 134.516 6.14014C133.967 6.14014 133.52 6.58691 133.52 7.13623C133.52 7.67822 133.967 8.125 134.516 8.125ZM133.718 17.5H135.3V9.5459H133.718V17.5ZM141.84 17.6318C143.847 17.6318 145.136 16.0278 145.136 13.5303V13.5156C145.136 10.9961 143.862 9.40674 141.84 9.40674C140.749 9.40674 139.819 9.94873 139.394 10.8057H139.277V6.42578H137.688V17.5H139.277V16.2476H139.394C139.855 17.1191 140.727 17.6318 141.84 17.6318ZM141.394 16.2769C140.068 16.2769 139.248 15.2295 139.248 13.5303V13.5156C139.248 11.8164 140.068 10.769 141.394 10.769C142.719 10.769 143.518 11.8091 143.518 13.5156V13.5303C143.518 15.2368 142.719 16.2769 141.394 16.2769ZM147.106 17.5H148.696V6.42578H147.106V17.5ZM151.889 8.125C152.431 8.125 152.885 7.67822 152.885 7.13623C152.885 6.58691 152.431 6.14014 151.889 6.14014C151.34 6.14014 150.893 6.58691 150.893 7.13623C150.893 7.67822 151.34 8.125 151.889 8.125ZM151.091 17.5H152.673V9.5459H151.091V17.5ZM158.356 17.6538C160.686 17.6538 162.114 16.0938 162.114 13.5303V13.5156C162.114 10.9521 160.678 9.39209 158.356 9.39209C156.027 9.39209 154.592 10.9595 154.592 13.5156V13.5303C154.592 16.0938 156.02 17.6538 158.356 17.6538ZM158.356 16.3281C156.987 16.3281 156.218 15.2954 156.218 13.5303V13.5156C156.218 11.7505 156.987 10.7178 158.356 10.7178C159.719 10.7178 160.495 11.7505 160.495 13.5156V13.5303C160.495 15.2881 159.719 16.3281 158.356 16.3281ZM167.014 17.5513C167.321 17.5513 167.614 17.5146 167.871 17.4707V16.2036C167.651 16.2256 167.512 16.2329 167.27 16.2329C166.486 16.2329 166.164 15.8813 166.164 15.0244V10.7983H167.871V9.5459H166.164V7.53906H164.545V9.5459H163.3V10.7983H164.545V15.4053C164.545 16.936 165.263 17.5513 167.014 17.5513ZM169.797 17.5H171.386V12.8345C171.386 11.5527 172.111 10.7544 173.276 10.7544C174.44 10.7544 174.99 11.4062 174.99 12.7246V17.5H176.572V12.3511C176.572 10.4541 175.59 9.39209 173.811 9.39209C172.653 9.39209 171.892 9.90479 171.503 10.7544H171.386V6.42578H169.797V17.5ZM182.131 17.6538C184.167 17.6538 185.266 16.4819 185.529 15.4346L185.544 15.3687L184.013 15.376L183.984 15.4346C183.793 15.8447 183.186 16.3501 182.167 16.3501C180.856 16.3501 180.021 15.4639 179.992 13.9404H185.632V13.3838C185.632 10.9961 184.27 9.39209 182.05 9.39209C179.831 9.39209 178.396 11.0547 178.396 13.5376V13.5449C178.396 16.0645 179.802 17.6538 182.131 17.6538ZM182.058 10.6958C183.134 10.6958 183.933 11.3843 184.057 12.8052H180.014C180.153 11.4355 180.974 10.6958 182.058 10.6958ZM190.861 17.6538C192.897 17.6538 193.996 16.4819 194.26 15.4346L194.274 15.3687L192.744 15.376L192.714 15.4346C192.524 15.8447 191.916 16.3501 190.898 16.3501C189.587 16.3501 188.752 15.4639 188.723 13.9404H194.362V13.3838C194.362 10.9961 193 9.39209 190.781 9.39209C188.562 9.39209 187.126 11.0547 187.126 13.5376V13.5449C187.126 16.0645 188.532 17.6538 190.861 17.6538ZM190.788 10.6958C191.865 10.6958 192.663 11.3843 192.788 12.8052H188.745C188.884 11.4355 189.704 10.6958 190.788 10.6958ZM196.325 17.5H197.915V14.6069L198.596 13.9258L201.335 17.5H203.269L199.731 12.9004L203.049 9.5459H201.188L198.032 12.9004H197.915V6.42578H196.325V17.5Z" fill="#4D4D4D"/>
</svg>
